<svg width="330" height="604" viewBox="0 0 330 604" fill="none" xmlns="http://www.w3.org/2000/svg">
<path d="M301.696 27.4624C150.241 27.4624 27.4629 150.236 27.4629 301.686C27.4629 453.136 150.241 575.91 301.696 575.91" stroke="#FF4100" stroke-width="54.8246" stroke-linecap="round"/>
<path d="M144.438 363.197C154.08 401.312 183.405 429.249 218.813 438.901" stroke="#320050" stroke-width="21.0225" stroke-linecap="round"/>
<path fill-rule="evenodd" clip-rule="evenodd" d="M137.235 99.8499C122.21 99.8499 110.03 112.03 110.03 127.055C110.03 142.08 122.21 154.26 137.235 154.26C152.261 154.26 164.441 142.08 164.441 127.055C164.441 112.03 152.261 99.8499 137.235 99.8499ZM137.235 109.653C146.831 109.653 154.637 117.46 154.637 127.055C154.637 136.65 146.831 144.456 137.235 144.456C127.64 144.456 119.833 136.65 119.833 127.055C119.833 117.46 127.64 109.653 137.235 109.653Z" fill="#FFC500"/>
</svg>
