<svg width="134" height="334" viewBox="0 0 134 334" fill="none" xmlns="http://www.w3.org/2000/svg">
<path fill-rule="evenodd" clip-rule="evenodd" d="M-33 0C-125.232 0 -200 74.7683 -200 167C-200 259.232 -125.232 334 -33 334C59.2317 334 134 259.232 134 167C134 74.7683 59.2317 0 -33 0ZM-33 23.4386C-13.6089 23.4386 5.18929 27.231 22.8733 34.7106C39.9659 41.9402 55.3213 52.2946 68.5133 65.4867C81.7054 78.6787 92.0598 94.0341 99.2894 111.127C106.769 128.811 110.561 147.609 110.561 167C110.561 186.391 106.769 205.189 99.2894 222.873C92.0598 239.966 81.7054 255.321 68.5133 268.513C55.3213 281.705 39.9659 292.06 22.8733 299.289C5.18929 306.769 -13.6089 310.561 -33 310.561C-52.3911 310.561 -71.1893 306.769 -88.8733 299.289C-105.966 292.06 -121.321 281.705 -134.513 268.513C-147.705 255.321 -158.06 239.966 -165.289 222.873C-172.769 205.189 -176.561 186.391 -176.561 167C-176.561 147.609 -172.769 128.811 -165.289 111.127C-158.06 94.0341 -147.705 78.6787 -134.513 65.4867C-121.321 52.2946 -105.966 41.9402 -88.8733 34.7106C-71.1893 27.231 -52.3911 23.4386 -33 23.4386Z" fill="#320050"/>
</svg>
