<svg width="14" height="14" viewBox="0 0 14 14" fill="none" xmlns="http://www.w3.org/2000/svg">
<path fill-rule="evenodd" clip-rule="evenodd" d="M13.9554 6.18167C13.9257 6.11064 13.8831 6.04601 13.8288 5.99187L12.0794 4.24585C11.8513 4.0188 11.4827 4.0188 11.2546 4.24585C11.0265 4.47348 11.0265 4.84201 11.2546 5.06907L12.0088 5.82185H8.75032C8.42774 5.82185 8.16699 6.08266 8.16699 6.40404C8.16699 6.72541 8.42774 6.98622 8.75032 6.98622H12.0088L11.2546 7.739C11.0265 7.96663 11.0265 8.33516 11.2546 8.56222C11.3683 8.67632 11.5176 8.73281 11.667 8.73281C11.8163 8.73281 11.9657 8.67635 12.0794 8.56222L13.8288 6.8162C13.8831 6.76263 13.9257 6.69801 13.9554 6.6264C14.0143 6.48441 14.0143 6.32372 13.9554 6.18167Z" fill="#5A5A5A"/>
<path fill-rule="evenodd" clip-rule="evenodd" d="M9.91665 8.15076C9.59407 8.15076 9.33332 8.41157 9.33332 8.73294V11.6439H7V2.32878C7 2.07203 6.83082 1.84497 6.58407 1.77104L4.55815 1.1644H9.33332V4.07539C9.33332 4.39676 9.59407 4.65758 9.91665 4.65758C10.2392 4.65758 10.5 4.39676 10.5 4.07539V0.582214C10.5 0.260815 10.2392 0 9.91665 0H0.583324C0.562324 0 0.543648 0.00873294 0.52325 0.0110526C0.495824 0.0139727 0.47075 0.0186121 0.4445 0.0250253C0.38325 0.0407446 0.327824 0.0646238 0.275926 0.0972086C0.263102 0.105368 0.247352 0.105942 0.235102 0.115248C0.230398 0.118768 0.228648 0.125181 0.223973 0.128674C0.160398 0.178725 0.107324 0.239856 0.0688242 0.312639C0.0606484 0.328359 0.0588984 0.345251 0.0525 0.361544C0.0338242 0.405782 0.0134258 0.448873 0.00642578 0.497778C0.0035 0.515244 0.00875 0.531536 0.00817578 0.548429C0.00760156 0.560082 0 0.570561 0 0.582187V12.2261C0 12.5038 0.196574 12.7425 0.469 12.7967L6.30232 13.9611C6.34025 13.9692 6.37875 13.9727 6.41665 13.9727C6.55022 13.9727 6.68147 13.9268 6.78647 13.8406C6.92122 13.73 6.99997 13.5652 6.99997 13.3905V12.8083H9.91665C10.2392 12.8083 10.5 12.5475 10.5 12.2261V8.73294C10.5 8.41157 10.2392 8.15076 9.91665 8.15076Z" fill="#5A5A5A"/>
</svg>
