<svg width="13" height="16" viewBox="0 0 13 16" fill="none" xmlns="http://www.w3.org/2000/svg">
<path fill-rule="evenodd" clip-rule="evenodd" d="M12.9919 13.1943L12.2598 4.19069C12.2142 3.61063 11.7115 3.15622 11.1154 3.15622H9.66932V3.09278C9.66932 1.38741 8.24774 0 6.50037 0C4.75299 0 3.33141 1.38741 3.33141 3.09278V3.15622H1.88533C1.28922 3.15622 0.786546 3.61059 0.741078 4.18947L0.00872285 13.1955C-0.047952 13.9166 0.208366 14.6345 0.711908 15.1651C1.21545 15.6957 1.92926 16 2.6703 16H10.3304C11.0714 16 11.7852 15.6957 12.2888 15.1651C12.7924 14.6345 13.0487 13.9166 12.9919 13.1943ZM4.29168 3.09278C4.29168 1.90419 5.28253 0.937187 6.50037 0.937187C7.7182 0.937187 8.70905 1.90422 8.70905 3.09278V3.15622H4.29168V3.09278Z" fill="#5A5A5A"/>
<mask id="mask0" mask-type="alpha" maskUnits="userSpaceOnUse" x="0" y="0" width="13" height="16">
<path fill-rule="evenodd" clip-rule="evenodd" d="M12.9919 13.1943L12.2598 4.19069C12.2142 3.61063 11.7115 3.15622 11.1154 3.15622H9.66932V3.09278C9.66932 1.38741 8.24774 0 6.50037 0C4.75299 0 3.33141 1.38741 3.33141 3.09278V3.15622H1.88533C1.28922 3.15622 0.786546 3.61059 0.741078 4.18947L0.00872285 13.1955C-0.047952 13.9166 0.208366 14.6345 0.711908 15.1651C1.21545 15.6957 1.92926 16 2.6703 16H10.3304C11.0714 16 11.7852 15.6957 12.2888 15.1651C12.7924 14.6345 13.0487 13.9166 12.9919 13.1943ZM4.29168 3.09278C4.29168 1.90419 5.28253 0.937187 6.50037 0.937187C7.7182 0.937187 8.70905 1.90422 8.70905 3.09278V3.15622H4.29168V3.09278Z" fill="white"/>
</mask>
<g mask="url(#mask0)">
</g>
</svg>
