<svg width="29" height="38" viewBox="0 0 29 38" fill="none" xmlns="http://www.w3.org/2000/svg">
<path fill-rule="evenodd" clip-rule="evenodd" d="M26.1251 27.553C25.1631 27.2123 21.7227 25.9463 21.7227 25.9463C21.7385 25.7378 21.6684 25.5257 21.5168 25.366L20.11 23.8825V21.3923C20.2588 21.2693 20.4054 21.143 20.5475 21.0094C22.3222 19.3398 23.34 16.9826 23.34 14.5422V12.5535C23.8759 11.3831 24.1475 10.1445 24.1475 8.869V0.764693C24.1475 0.346086 23.8094 0.00671387 23.3923 0.00671387H12.0874C8.10898 0.00671387 4.87236 3.25531 4.87236 7.24824V8.8692C4.87236 10.1447 5.14393 11.3833 5.67983 12.5537V14.2648C5.67983 17.0982 6.93508 19.6509 8.9098 21.3338V23.8826L7.503 25.3661C7.35145 25.5258 7.28137 25.7379 7.29718 25.9464L2.65064 27.6421C2.31391 27.765 2.00106 27.9315 1.717 28.1331L0.634733 29.2849C0.24726 29.9072 0.0273438 30.6368 0.0273438 31.4012V37.2351C0.0273438 37.6537 0.365476 37.9931 0.782552 37.9931C1.19963 37.9931 1.53776 37.6537 1.53776 37.2351V31.4012C1.53776 30.3606 2.19238 29.4226 3.1668 29.0669L8.06578 27.279L10.1051 30.3494C10.3658 30.7419 10.7836 30.9937 11.2514 31.0402C11.3035 31.0453 11.3554 31.0479 11.4071 31.0479C11.8198 31.0479 12.215 30.8848 12.5104 30.5884L13.7546 29.3397V37.2352C13.7546 37.6538 14.0927 37.9932 14.5098 37.9932C14.9269 37.9932 15.265 37.6538 15.265 37.2352V29.3397L16.5092 30.5884C16.8046 30.8849 17.1998 31.048 17.6125 31.048C17.6642 31.048 17.7161 31.0454 17.7682 31.0403C18.236 30.9938 18.6538 30.742 18.9145 30.3495L20.954 27.2792L25.8528 29.0671C26.8272 29.4228 27.4819 30.3608 27.4819 31.4014V37.2353C27.4819 37.6539 27.82 37.9933 28.2371 37.9933C28.6542 37.9933 28.9923 37.6539 28.9923 37.2353V31.4014C28.9923 30.3475 28.5751 29.3591 27.8753 28.6281C27.8753 28.6281 27.0872 27.8937 26.1251 27.553ZM7.19024 14.2647V12.3841C7.19024 12.27 7.16457 12.1573 7.11513 12.0545C6.62917 11.0445 6.38277 9.97282 6.38277 8.8692V7.24834C6.38277 4.09121 8.94192 1.52277 12.0874 1.52277H22.6371V8.8693C22.6371 9.97292 22.3907 11.0446 21.9047 12.0546C21.8553 12.1574 21.8296 12.2701 21.8296 12.3842V14.5424C21.8296 16.5951 21.0074 18.4991 19.5145 19.9036C19.3282 20.0788 19.1347 20.2431 18.9347 20.3962C18.9317 20.3983 18.9288 20.4005 18.9259 20.4027L18.9217 20.4057C17.5232 21.4715 15.8102 21.9894 14.0213 21.8731C10.1907 21.6242 7.19024 18.2822 7.19024 14.2647ZM11.4424 29.5165L11.4425 29.5163L13.3322 27.6196L9.76913 25.1751L9.01332 25.9722L11.362 29.5083C11.3661 29.5145 11.3758 29.529 11.4004 29.5314C11.4249 29.534 11.4371 29.5218 11.4424 29.5165ZM14.5099 26.5913L10.4202 23.7855V22.3706C11.4784 22.9448 12.6633 23.3038 13.9235 23.3857C14.1226 23.3986 14.3204 23.405 14.5177 23.405C15.9617 23.405 17.3515 23.0586 18.5996 22.4009V23.7855L14.5099 26.5913ZM17.6195 29.5316C17.644 29.5292 17.6537 29.5147 17.6578 29.5085L20.0066 25.9724L19.2507 25.1753L15.6876 27.6199L17.5774 29.5165L17.5781 29.5173C17.5838 29.5228 17.5959 29.5346 17.6195 29.5316Z" fill="#FF4101"/>
<path fill-rule="evenodd" clip-rule="evenodd" d="M20.6956 9.14376C17.8393 6.27698 11.8632 6.82505 9.4262 7.19373C8.6586 7.30985 8.10156 7.96182 8.10156 8.74395V10.4901C8.10156 10.9087 8.43969 11.2481 8.85677 11.2481C9.27385 11.2481 9.61198 10.9087 9.61198 10.4901V8.74385C9.61198 8.71808 9.6289 8.69605 9.65145 8.69261C10.6249 8.54536 12.5565 8.31817 14.5578 8.45208C16.9128 8.60943 18.6186 9.20278 19.6277 10.2156C19.9226 10.5117 20.4008 10.5117 20.6956 10.2156C20.9906 9.91962 20.9906 9.43967 20.6956 9.14376Z" fill="#FF4101"/>
<path fill-rule="evenodd" clip-rule="evenodd" d="M5.62728 33.2351C5.2102 33.2351 4.87207 33.5745 4.87207 33.9931V37.2349C4.87207 37.6535 5.2102 37.9929 5.62728 37.9929C6.04436 37.9929 6.38249 37.6535 6.38249 37.2349V33.9931C6.38249 33.5746 6.04436 33.2351 5.62728 33.2351Z" fill="#FF4101"/>
<path fill-rule="evenodd" clip-rule="evenodd" d="M23.3919 33.2351C22.9749 33.2351 22.6367 33.5745 22.6367 33.9931V37.2349C22.6367 37.6535 22.9749 37.9929 23.3919 37.9929C23.809 37.9929 24.1471 37.6535 24.1471 37.2349V33.9931C24.1471 33.5746 23.809 33.2351 23.3919 33.2351Z" fill="#FF4101"/>
</svg>
