<svg width="37" height="34" viewBox="0 0 37 34" fill="none" xmlns="http://www.w3.org/2000/svg">
<path fill-rule="evenodd" clip-rule="evenodd" d="M12.2607 30.7619C12.2607 28.9809 13.7205 27.532 15.5148 27.532C17.309 27.532 18.7688 28.9809 18.7688 30.7619C18.7688 32.5429 17.3091 33.9918 15.5148 33.9918C13.7205 33.9918 12.2607 32.5429 12.2607 30.7619ZM14.0776 30.7618C14.0776 31.5483 14.7223 32.1883 15.5148 32.1883C16.3072 32.1883 16.9519 31.5484 16.9519 30.7618C16.9519 29.9752 16.3072 29.3353 15.5148 29.3353C14.7224 29.3353 14.0776 29.9752 14.0776 30.7618Z" fill="#FF4101"/>
<path fill-rule="evenodd" clip-rule="evenodd" d="M23.6738 30.7619C23.6738 28.9809 25.1336 27.532 26.9279 27.532C28.7221 27.532 30.1819 28.9809 30.1819 30.7619C30.1819 32.5429 28.7222 33.9918 26.9279 33.9918C25.1336 33.9918 23.6738 32.5429 23.6738 30.7619ZM25.4907 30.7618C25.4907 31.5483 26.1354 32.1883 26.9279 32.1883C27.7203 32.1883 28.365 31.5484 28.365 30.7618C28.365 29.9752 27.7203 29.3353 26.9279 29.3353C26.1355 29.3353 25.4907 29.9752 25.4907 30.7618Z" fill="#FF4101"/>
<path d="M27.7298 10.5267H14.7112C14.2094 10.5267 13.8027 10.9304 13.8027 11.4285C13.8027 11.9265 14.2095 12.3302 14.7112 12.3302H27.7298C28.2315 12.3302 28.6382 11.9265 28.6382 11.4285C28.6382 10.9304 28.2315 10.5267 27.7298 10.5267Z" fill="#FF6319"/>
<path d="M27.0206 15.2092H15.4192C14.9175 15.2092 14.5107 15.6129 14.5107 16.1109C14.5107 16.609 14.9175 17.0127 15.4192 17.0127H27.0205C27.5222 17.0127 27.929 16.609 27.929 16.1109C27.929 15.613 27.5222 15.2092 27.0206 15.2092Z" fill="#FF6319"/>
<path fill-rule="evenodd" clip-rule="evenodd" d="M35.1827 5.84499C35.7313 5.84499 36.2446 6.08701 36.5911 6.50907C36.9376 6.93105 37.0729 7.479 36.9622 8.0121L34.4212 20.2546C34.2481 21.0887 33.4996 21.6941 32.6417 21.6941H10.1749L10.7096 24.2703H32.4735C32.9752 24.2703 33.3819 24.674 33.3819 25.1721C33.3819 25.6701 32.9752 26.0738 32.4735 26.0738H10.7095C9.8515 26.0738 9.10312 25.4684 8.92997 24.6343L4.53434 3.45524L0.546866 1.73723C0.0867513 1.53904 -0.124481 1.00795 0.0754056 0.551033C0.275075 0.0942562 0.810058 -0.11541 1.27039 0.0830663L5.25779 1.801C5.79986 2.03462 6.19457 2.51694 6.31388 3.09135L6.88536 5.84499H35.1827ZM9.80062 19.8908H32.6417L35.1826 7.64842L7.25969 7.64835L9.80062 19.8908Z" fill="#FF4101"/>
</svg>
