<svg width="15" height="12" viewBox="0 0 15 12" fill="none" xmlns="http://www.w3.org/2000/svg">
<path fill-rule="evenodd" clip-rule="evenodd" d="M10.9908 6.56136C10.4667 7.23024 9.75155 7.75868 8.8454 8.14691C7.93928 8.53517 6.95358 8.72916 5.88853 8.72881C5.40899 8.72881 4.91821 8.68349 4.41642 8.59279C3.72498 9.09149 2.94981 9.45426 2.09106 9.68097C1.89035 9.73204 1.65053 9.77736 1.37177 9.81702H1.34666C1.28522 9.81702 1.22815 9.79442 1.17516 9.74916C1.12222 9.70361 1.09017 9.6442 1.07895 9.57062C1.07332 9.55353 1.07057 9.53519 1.07057 9.51542C1.07057 9.49564 1.07197 9.47709 1.07479 9.46021C1.07754 9.44309 1.08316 9.42615 1.09148 9.40923L1.11243 9.36686L1.14173 9.32008C1.16121 9.28891 1.1724 9.27473 1.17516 9.2778C1.17797 9.28045 1.19051 9.26637 1.21286 9.23519C1.23513 9.20401 1.24635 9.19118 1.24635 9.19687C1.27415 9.16295 1.33831 9.09211 1.43874 8.98441C1.53914 8.87683 1.61162 8.79312 1.65624 8.73363C1.70089 8.67432 1.76355 8.59219 1.84441 8.48723C1.92533 8.3823 1.99497 8.27328 2.05356 8.15995C2.11213 8.04644 2.16929 7.92192 2.22501 7.78578C1.5336 7.37778 0.989883 6.8761 0.594023 6.28101C0.198164 5.68602 0 5.05097 0 4.37659C0 3.58873 0.262119 2.86054 0.786328 2.19178C1.31042 1.523 2.02559 0.994493 2.93168 0.606235C3.83789 0.217977 4.82347 0.0238037 5.88853 0.0238037C6.95367 0.0238037 7.93925 0.217858 8.8454 0.606116C9.75155 0.994434 10.4667 1.52294 10.9908 2.19169C11.5149 2.86054 11.777 3.58876 11.777 4.37659C11.777 5.16439 11.5149 5.89264 10.9908 6.56136ZM3.79746 7.70059L4.16555 7.43718L4.60887 7.52208C5.04387 7.60134 5.47046 7.64109 5.88858 7.64109C6.74183 7.64109 7.53923 7.49373 8.28079 7.19903C9.02241 6.90436 9.61213 6.50491 10.05 6.00034C10.4877 5.49592 10.7065 4.9547 10.7065 4.37662C10.7065 3.79841 10.4877 3.25716 10.05 2.75278C9.6121 2.24836 9.02238 1.84879 8.28079 1.554C7.53923 1.25936 6.74174 1.1119 5.88858 1.1119C5.03543 1.1119 4.238 1.25936 3.49641 1.554C2.75476 1.84882 2.16504 2.24836 1.7274 2.75278C1.28971 3.25719 1.07074 3.79844 1.07074 4.37662C1.07074 4.8414 1.21846 5.28915 1.51403 5.71987C1.80958 6.15062 2.22495 6.52471 2.76038 6.84201L3.57173 7.31808L3.27891 8.0323C3.46854 7.91888 3.64131 7.8082 3.79746 7.70059Z" fill="#5A5A5A"/>
<path fill-rule="evenodd" clip-rule="evenodd" d="M14.395 8.46127C14.791 7.86883 14.9889 7.23283 14.9889 6.55264C14.9889 5.85554 14.7797 5.20367 14.3616 4.59733C13.9434 3.99101 13.3745 3.48651 12.6552 3.08411C12.7834 3.50914 12.8475 3.93986 12.8475 4.37635C12.8475 5.13575 12.661 5.85554 12.2871 6.53573C11.9135 7.21571 11.3782 7.81642 10.6812 8.33793C10.0343 8.814 9.2982 9.17945 8.47285 9.43458C7.64773 9.68953 6.78614 9.81715 5.88834 9.81715C5.72111 9.81715 5.47572 9.80592 5.15234 9.78329C6.27313 10.5313 7.58917 10.9054 9.10027 10.9054C9.57989 10.9054 10.0706 10.86 10.5725 10.7693C11.2639 11.2682 12.0391 11.6308 12.8978 11.8576C13.0985 11.9088 13.3383 11.954 13.6171 11.9936C13.684 11.9995 13.7455 11.9795 13.8012 11.9342C13.8569 11.8888 13.8932 11.8266 13.9099 11.7474C13.9073 11.7133 13.9099 11.6947 13.9183 11.6919C13.9265 11.6893 13.9251 11.6707 13.9141 11.6368C13.9031 11.6027 13.8974 11.5857 13.8974 11.5857L13.8766 11.5433C13.8708 11.5321 13.8613 11.5164 13.8473 11.4967C13.8334 11.477 13.8223 11.4627 13.8138 11.4542C13.8056 11.4457 13.7932 11.4315 13.7763 11.4118C13.7597 11.3921 13.7485 11.3793 13.7428 11.3736C13.715 11.3395 13.6509 11.2687 13.5505 11.161C13.4501 11.0534 13.3777 10.9698 13.3331 10.9103C13.2885 10.8508 13.2257 10.7687 13.1449 10.6637C13.0641 10.559 12.9943 10.4498 12.9357 10.3365C12.8772 10.2231 12.82 10.0984 12.7643 9.96246C13.4555 9.55404 13.9993 9.05391 14.395 8.46127Z" fill="#5A5A5A"/>
</svg>
