<svg width="13" height="10" viewBox="0 0 13 10" fill="none" xmlns="http://www.w3.org/2000/svg">
<path fill-rule="evenodd" clip-rule="evenodd" d="M0.463988 7.2749H12.5266C12.6521 7.2749 12.761 7.31982 12.8529 7.40949C12.9447 7.49917 12.9907 7.60565 12.9907 7.72845V9.54192C12.9907 9.66458 12.9447 9.77106 12.8529 9.86071C12.761 9.95041 12.6522 9.9954 12.5266 9.9954H0.464014C0.338406 9.9954 0.229658 9.95039 0.137719 9.86071C0.0459316 9.77103 0 9.66456 0 9.54192V7.72845C0 7.60565 0.0459316 7.49917 0.137693 7.40952C0.229557 7.31984 0.338254 7.2749 0.463988 7.2749ZM7.42343 9.08865H12.0627H12.0629V8.18175H7.42343V9.08865Z" fill="#5A5A5A"/>
<path fill-rule="evenodd" clip-rule="evenodd" d="M0.463988 3.64758H12.5266C12.6521 3.64758 12.761 3.69245 12.8529 3.78222C12.9447 3.87195 12.9907 3.9782 12.9907 4.10096V5.91453C12.9907 6.03733 12.9447 6.14366 12.8529 6.23331C12.761 6.32302 12.6522 6.368 12.5266 6.368H0.464014C0.338406 6.368 0.229658 6.32299 0.137719 6.23331C0.0459316 6.14364 0 6.03731 0 5.91453V4.10096C0 3.9782 0.0459316 3.87193 0.137693 3.78222C0.229557 3.69247 0.338254 3.64758 0.463988 3.64758ZM4.63958 5.46123H12.0625V4.55446H4.63958V5.46123Z" fill="#5A5A5A"/>
<path fill-rule="evenodd" clip-rule="evenodd" d="M12.5266 0.0202637C12.6522 0.0202637 12.761 0.0652264 12.8529 0.154854C12.9446 0.244681 12.9906 0.350934 12.9907 0.473713V2.28724C12.9907 2.41011 12.9447 2.51639 12.8529 2.60609C12.761 2.69585 12.6522 2.74069 12.5266 2.74069H0.464014C0.338406 2.74069 0.229658 2.69585 0.137719 2.60609C0.0459316 2.51639 0 2.41011 0 2.28724V0.473713C0 0.350934 0.0459316 0.244606 0.137693 0.154854C0.229557 0.0652264 0.338254 0.0202637 0.463988 0.0202637H12.5266ZM9.27898 1.83396H12.0625V0.927087H9.27898V1.83396Z" fill="#5A5A5A"/>
</svg>
