<svg width="186" height="249" viewBox="0 0 186 249" fill="none" xmlns="http://www.w3.org/2000/svg">
<path fill-rule="evenodd" clip-rule="evenodd" d="M145.195 125.033C145.195 125.033 171.56 117.992 160.754 283.258L149.559 284.002L138.441 147.143L145.195 125.033Z" fill="#D7DADD"/>
<mask id="mask0" mask-type="alpha" maskUnits="userSpaceOnUse" x="0" y="0" width="186" height="512">
<path fill-rule="evenodd" clip-rule="evenodd" d="M0 511.492H185.669V0H0V511.492Z" fill="white"/>
</mask>
<g mask="url(#mask0)">
<path fill-rule="evenodd" clip-rule="evenodd" d="M59.7852 349.412H130.867V214.513H59.7852V349.412Z" fill="#B6C7D3"/>
<path fill-rule="evenodd" clip-rule="evenodd" d="M55.2782 276.296C55.7294 295.318 73.592 310.738 95.1752 310.737C116.758 310.737 133.889 295.318 133.438 276.296C132.987 257.275 115.124 241.855 93.5408 241.855C71.9576 241.855 54.827 257.275 55.2782 276.296Z" fill="#424259"/>
<path fill-rule="evenodd" clip-rule="evenodd" d="M140.232 254.715L47.805 253.406L41.625 124.626H143.884L140.232 254.715Z" fill="#58A0D6"/>
<path fill-rule="evenodd" clip-rule="evenodd" d="M79.935 97.4518C83.1504 95.3283 91.8036 93.4535 92.907 93.9362C94.0104 93.4535 102.664 95.3283 105.879 97.4518C125.446 110.375 145.609 116.64 145.63 136.303C136.33 129.754 145.033 145.169 144.989 152.378H92.907H40.8246C30.543 152.378 31.089 137.785 31.089 137.785C31.1112 118.122 60.3684 110.376 79.935 97.4518Z" fill="#58A0D6"/>
<path fill-rule="evenodd" clip-rule="evenodd" d="M55.7377 110.04C46.2715 115.344 34.6381 123.12 32.8555 130.107L37.3063 150.248L39.9301 226.644L38.6401 348.821L78.6319 352.574L87.8485 185.241C87.4135 168.672 62.6041 106.193 55.7377 110.04Z" fill="#F0F1F2"/>
<path fill-rule="evenodd" clip-rule="evenodd" d="M133.992 114.779C143.848 119.916 151.44 127.099 153.726 133.88L147.514 154.564L154.609 346.808L121.855 350.466L118.156 158.429C117.46 145.782 126.88 111.072 133.992 114.779Z" fill="#F0F1F2"/>
<path fill-rule="evenodd" clip-rule="evenodd" d="M98.7129 114.62L109.365 123.654L104.157 132.457L100.37 132.225L98.7129 114.62Z" fill="#32539E"/>
<path fill-rule="evenodd" clip-rule="evenodd" d="M98.7129 114.62L97.5687 114.813L88.2969 123.886L93.2685 132.457L102.421 132.302L98.7129 114.62Z" fill="#32539E"/>
<path fill-rule="evenodd" clip-rule="evenodd" d="M104.157 132.457C104.157 132.457 113.39 201.179 112.127 216.005L104.264 228.389L93.1895 215.078L93.2681 132.457C97.2659 130.456 100.992 129.928 104.157 132.457Z" fill="#32539E"/>
<path fill-rule="evenodd" clip-rule="evenodd" d="M69.2025 100.953C69.2025 100.953 78.3237 124.018 85.8051 147.364C87.6465 153.111 87.1791 181.09 86.8779 185.582L66.0465 147.128L72.0435 135.392L45.8457 115.006C45.8457 115.006 59.7333 103.733 69.2025 100.953Z" fill="#F0F1F2"/>
<path fill-rule="evenodd" clip-rule="evenodd" d="M118.835 103.037C118.835 103.037 115.251 123.809 114.995 147.128C114.933 152.786 117.399 180.263 118.729 184.655L130.527 147.964L121.844 136.489L143.375 116.56C143.375 116.56 128.94 105.755 118.835 103.037Z" fill="#F0F1F2"/>
<path fill-rule="evenodd" clip-rule="evenodd" d="M104.581 96.3384L117.414 100.49C118.282 109.143 119.308 117.631 116.94 129.214L98.7129 114.62C98.7129 114.62 106.633 113.326 104.581 96.3384Z" fill="#83D0FF"/>
<path fill-rule="evenodd" clip-rule="evenodd" d="M80.7573 94.5217L68.7285 100.181C70.9773 109.868 75.5145 118.095 80.2491 132.92L97.5303 114.852C97.5303 114.852 76.6539 112.745 80.7573 94.5217Z" fill="#83D0FF"/>
<path fill-rule="evenodd" clip-rule="evenodd" d="M110.549 124.581L110.904 129.909L99.186 119.948L87.5868 131.183L86.166 126.203L97.5288 114.852L98.7126 114.62L110.549 124.581Z" fill="#2C3C5B"/>
<path fill-rule="evenodd" clip-rule="evenodd" d="M86.8775 185.582L65.8877 148.055L71.4113 135.237L45.8453 115.006L43.1621 117.786L67.1507 135.546L61.9427 147.9L86.8775 185.582Z" fill="#B6C7D3"/>
<path fill-rule="evenodd" clip-rule="evenodd" d="M143.374 116.561L146.521 120.103L125.851 137.553L133.46 147.128L118.633 186.354L130.528 147.964L121.843 136.49L143.374 116.561Z" fill="#B6C7D3"/>
<path fill-rule="evenodd" clip-rule="evenodd" d="M131.641 152.676C129.039 138.963 127.803 124.668 123.553 111.327C120.95 103.156 116.173 96.078 107.04 95.1931C105.118 95.0073 105.136 98.0001 107.04 98.1842C116.088 99.0607 119.518 107.691 121.631 115.385C125.044 127.814 126.356 140.828 128.755 153.471C129.114 155.365 131.999 154.561 131.641 152.676Z" fill="#242D22"/>
<path fill-rule="evenodd" clip-rule="evenodd" d="M138.98 156.069C141.008 160.098 139.314 164.972 135.197 166.956C131.081 168.941 126.099 167.284 124.072 163.255C122.044 159.227 123.737 154.352 127.854 152.367C131.97 150.383 136.952 152.04 138.98 156.069Z" fill="#65ABEA"/>
<path fill-rule="evenodd" clip-rule="evenodd" d="M136.934 155.217C138.496 158.321 137.192 162.076 134.021 163.604C130.85 165.133 127.013 163.856 125.451 160.753C123.889 157.65 125.193 153.895 128.364 152.367C131.535 150.838 135.372 152.114 136.934 155.217Z" fill="#FBFBFF"/>
<path fill-rule="evenodd" clip-rule="evenodd" d="M136.341 152.791C137.902 155.894 136.598 159.649 133.427 161.177C130.257 162.706 126.42 161.429 124.858 158.326C123.295 155.223 124.6 151.468 127.771 149.94C130.942 148.411 134.779 149.688 136.341 152.791Z" fill="#242D22"/>
<path fill-rule="evenodd" clip-rule="evenodd" d="M78.4973 92.8114C75.1709 94.3666 72.3305 96.3462 70.1801 99.3529C67.4879 103.117 68.3177 107.731 68.8223 111.992C69.9035 121.131 64.2329 129.55 61.7909 138.012C61.1579 140.206 64.5683 141.135 65.1983 138.951C67.3145 131.617 71.1893 124.916 72.2339 117.267C72.7709 113.336 71.8031 109.589 71.7725 105.673C71.7335 100.711 76.3037 97.7198 80.2805 95.86C82.3433 94.896 80.5481 91.8527 78.4973 92.8114Z" fill="#242D22"/>
<path fill-rule="evenodd" clip-rule="evenodd" d="M69.0157 110.417C69.9553 114.927 72.9313 118.718 75.0811 122.699C77.1745 126.575 79.0981 132.45 77.5489 136.757C76.7767 138.906 80.1919 139.822 80.9563 137.696C82.5715 133.205 81.0151 127.926 79.3657 123.668C77.4667 118.767 73.5067 114.68 72.4231 109.478C71.9587 107.25 68.5531 108.195 69.0157 110.417Z" fill="#242D22"/>
<path fill-rule="evenodd" clip-rule="evenodd" d="M66.8231 143.188L71.7323 169.735C73.0085 175.441 74.1701 178.613 81.4865 177.473C81.5939 178.473 81.6911 179.474 81.7415 180.478L80.6111 180.677C75.2699 181.623 70.1087 178.188 69.1421 172.961L63.2597 141.148C62.2931 135.921 65.8751 138.06 66.8231 143.188Z" fill="#65ABEA"/>
<path fill-rule="evenodd" clip-rule="evenodd" d="M84.9381 176.863L81.0633 177.119C79.9725 177.192 79.1403 178.124 79.2135 179.191L79.2519 179.741C79.3257 180.809 80.2785 181.623 81.3693 181.551L85.2441 181.295C86.3349 181.222 87.1671 180.29 87.0933 179.223L87.0555 178.673C86.9817 177.605 86.0289 176.791 84.9381 176.863Z" fill="#242D22"/>
<path fill-rule="evenodd" clip-rule="evenodd" d="M76.1143 142.039L69.1117 168.133C67.3855 173.724 65.9755 176.799 58.7725 175.105C58.5853 176.094 58.4089 177.084 58.2793 178.081L59.3899 178.367C64.6405 179.716 70.0585 176.683 71.4373 171.546L79.8289 140.277C81.2077 135.139 77.4667 136.999 76.1143 142.039Z" fill="#65ABEA"/>
<path fill-rule="evenodd" clip-rule="evenodd" d="M55.3787 174.235L59.2217 174.785C60.3035 174.94 61.0589 175.933 60.9005 176.991L60.8195 177.536C60.6611 178.595 59.6465 179.334 58.5647 179.18L54.7217 178.629C53.6399 178.475 52.8845 177.482 53.0423 176.423L53.1239 175.878C53.2823 174.819 54.2969 174.08 55.3787 174.235Z" fill="#242D22"/>
<path fill-rule="evenodd" clip-rule="evenodd" d="M65.1684 141.049L63.1758 141.096C62.1414 141.12 61.2828 140.32 61.2582 139.307L61.233 138.266C61.2078 137.254 62.0262 136.414 63.0606 136.39L65.0532 136.343C66.0876 136.319 66.9456 137.119 66.9708 138.131L66.996 139.173C67.0206 140.185 66.2028 141.025 65.1684 141.049Z" fill="#242D22"/>
<path fill-rule="evenodd" clip-rule="evenodd" d="M79.0481 140.873L77.0867 140.524C76.0691 140.342 75.3941 139.388 75.5795 138.392L75.7697 137.367C75.9551 136.371 76.9301 135.711 77.9477 135.892L79.9091 136.241C80.9267 136.422 81.6017 137.377 81.4169 138.373L81.2261 139.397C81.0413 140.394 80.0657 141.054 79.0481 140.873Z" fill="#242D22"/>
<path fill-rule="evenodd" clip-rule="evenodd" d="M49.0638 207.664H79.6596C80.8722 207.664 81.864 206.673 81.864 205.461V188.923C81.864 187.712 80.8722 186.721 79.6596 186.721H49.0638C47.8512 186.721 46.8594 187.712 46.8594 188.923V205.461C46.8594 206.673 47.8512 207.664 49.0638 207.664Z" fill="#65ABEA"/>
<path fill-rule="evenodd" clip-rule="evenodd" d="M66.7215 199.779H78.7311C79.2309 199.779 79.6401 199.37 79.6401 198.871V190.184C79.6401 189.685 79.2309 189.276 78.7311 189.276H66.7215C66.2217 189.276 65.8125 189.685 65.8125 190.184V198.871C65.8125 199.37 66.2217 199.779 66.7215 199.779Z" fill="#F3F8FC"/>
<path fill-rule="evenodd" clip-rule="evenodd" d="M52.2369 192.966H61.2087C62.1987 192.966 63.0081 192.157 63.0081 191.168C63.0081 190.179 62.1987 189.37 61.2087 189.37H52.2369C51.2475 189.37 50.4375 190.179 50.4375 191.168C50.4375 192.157 51.2475 192.966 52.2369 192.966Z" fill="#F3F8FC"/>
<path fill-rule="evenodd" clip-rule="evenodd" d="M52.2369 199.211H61.2087C62.1987 199.211 63.0081 198.402 63.0081 197.413C63.0081 196.424 62.1987 195.616 61.2087 195.616H52.2369C51.2475 195.616 50.4375 196.424 50.4375 197.413C50.4375 198.402 51.2475 199.211 52.2369 199.211Z" fill="#F3F8FC"/>
<path fill-rule="evenodd" clip-rule="evenodd" d="M65.0178 188.361H65.0604C66.1836 188.361 67.1022 187.443 67.1022 186.321V182.705C67.1022 181.582 66.1836 180.665 65.0604 180.665H65.0178C63.8952 180.665 62.9766 181.582 62.9766 182.705V186.321C62.9766 187.443 63.8952 188.361 65.0178 188.361Z" fill="#32539E"/>
<path fill-rule="evenodd" clip-rule="evenodd" d="M14.9368 316.731L0.145041 268.482C-0.397359 266.713 0.62864 264.849 2.43644 264.317L83.3566 240.564C85.1644 240.033 87.0694 241.037 87.6118 242.806L102.404 291.056C102.946 292.825 101.92 294.689 100.112 295.22L19.192 318.974C17.3842 319.504 15.4792 318.501 14.9368 316.731Z" fill="#32539E"/>
<path fill-rule="evenodd" clip-rule="evenodd" d="M20.0816 314.016L5.6582 266.965L80.9516 244.863L95.3756 291.912L95.375 291.913L20.0816 314.016Z" fill="white"/>
<path fill-rule="evenodd" clip-rule="evenodd" d="M33.5006 128.557L56.8052 150.017L41.7164 186.999C36.3038 213.976 38.0942 253.15 47.9024 273.355C47.9024 273.355 25.8926 281.969 25.4516 280.672C-6.04897 188.032 33.5006 128.557 33.5006 128.557Z" fill="#F0F1F2"/>
<path fill-rule="evenodd" clip-rule="evenodd" d="M47.5444 175.518C47.5444 175.518 30.3124 209.77 41.6212 249.818L42.5632 252.585L46.198 251.267C46.198 251.267 37.4926 218.377 47.5444 175.518Z" fill="#B6C7D3"/>
<path fill-rule="evenodd" clip-rule="evenodd" d="M79.3283 102.805C80.2475 112.144 106.304 124.065 105.119 103.552L102.499 73.5264L78.3965 72.25C80.4467 85.2329 81.0665 96.2433 79.3283 102.805Z" fill="#F49F7D"/>
<path fill-rule="evenodd" clip-rule="evenodd" d="M104.762 96.3498C93.4249 93.7946 79.9813 95.0099 80.1313 103.255C80.1313 103.255 80.7547 83.2327 79.6309 77.7542C79.6309 77.7542 93.2809 98.2665 104.762 96.3498Z" fill="#EA8A6C"/>
<path fill-rule="evenodd" clip-rule="evenodd" d="M125.2 61.199C125.2 61.199 123.396 63.4185 121.643 56.2619C119.291 46.6628 117.142 24.609 112.39 23.7708C111.067 23.5376 101.889 21.9195 106.569 19.5513C114.381 15.5986 125.04 26.91 125.371 29.7895C127.134 39.8101 126.964 50.3079 125.2 61.199Z" fill="#744628"/>
<path fill-rule="evenodd" clip-rule="evenodd" d="M103.629 95.2324C103.629 95.2324 109.862 67.5533 107.882 59.2725L106.366 25.8217C104.386 17.5409 98.3413 9.86512 90.5755 10.3867L71.5225 11.6679C63.7561 12.1895 57.2863 21.2436 59.2669 29.5244L72.6421 77.8022C74.6227 86.083 83.6551 96.3931 103.629 95.2324Z" fill="#EA8A6C"/>
<path fill-rule="evenodd" clip-rule="evenodd" d="M103.885 95.2371L104.396 95.2467C115.61 94.4931 125.899 84.5217 125.144 73.3164L121.625 21.0481C121.433 18.1817 118.928 15.9946 116.059 16.1871L78.0247 18.7441C75.1561 18.9365 69.4567 21.698 69.6493 24.5643L75.3511 68.5058C76.3897 83.936 88.4425 96.2749 103.885 95.2371Z" fill="#FFAA82"/>
<path fill-rule="evenodd" clip-rule="evenodd" d="M117.654 51.9363C118.024 54.8369 116.852 57.3759 115.035 57.6073C113.218 57.8393 111.445 55.6756 111.074 52.7751C110.704 49.8752 111.877 47.3361 113.693 47.1041C115.51 46.8727 117.284 49.0358 117.654 51.9363Z" fill="#242D22"/>
<path fill-rule="evenodd" clip-rule="evenodd" d="M91.708 54.7621C92.224 57.6398 91.1806 60.2346 89.3776 60.5572C87.5746 60.8803 85.6948 58.8089 85.1788 55.9306C84.6628 53.0528 85.7062 50.458 87.5092 50.1355C89.3122 49.8124 91.192 51.8843 91.708 54.7621Z" fill="#242D22"/>
<path fill-rule="evenodd" clip-rule="evenodd" d="M124.538 28.9607C111.131 18.0834 77.2635 29.8618 71.8689 36.1557C72.6243 50.5169 79.9869 63.7959 71.2839 69.103L63.2001 68.5436L54.9153 43.3813C53.0733 37.7876 53.7807 31.6676 56.8509 26.6412L60.0213 21.4492C60.0213 21.4492 60.0909 20.8695 60.1137 20.5097C60.6789 11.6079 70.8903 5.08619 81.4791 2.68867C126.295 -7.45961 124.538 28.9607 124.538 28.9607Z" fill="#744628"/>
<path fill-rule="evenodd" clip-rule="evenodd" d="M121.114 42.1746C116.928 41.7417 113.254 42.0451 109.313 43.2106L108.82 39.4851C112.838 38.075 116.905 37.7207 121.023 38.4611L121.114 42.1746Z" fill="#744628"/>
<path fill-rule="evenodd" clip-rule="evenodd" d="M94.9334 45.5729C90.4214 45.3396 86.4986 45.8636 82.3358 47.3229L81.6074 43.3732C85.8392 41.6495 90.1808 41.0488 94.6364 41.6142L94.9334 45.5729Z" fill="#744628"/>
<path fill-rule="evenodd" clip-rule="evenodd" d="M111.155 63.0076C111.155 63.0076 110.48 67.82 106.818 68.0442C103.155 68.2685 101.023 64.8655 101.023 64.8655C101.023 64.8655 104.388 64.9285 106.59 64.531C108.793 64.1335 111.155 63.0076 111.155 63.0076Z" fill="#D38462"/>
<path fill-rule="evenodd" clip-rule="evenodd" d="M60.5742 67.6106C63.5322 72.7977 68.6088 75.4764 71.913 73.5933C72.2388 73.4074 72.5352 73.1844 72.8022 72.9278C75.2412 70.5848 75.207 65.4672 72.5406 60.7915C69.5826 55.6043 64.506 52.9256 61.2018 54.8088C57.8976 56.6919 57.6162 62.4234 60.5742 67.6106Z" fill="#EA8A6C"/>
<path fill-rule="evenodd" clip-rule="evenodd" d="M69.9064 62.6668C70.4824 64.1392 67.7572 64.6045 67.6876 65.8377C67.5814 67.719 69.724 70.0992 68.314 70.4487C65.9794 71.0272 62.9074 68.481 61.4518 64.7609C59.9968 61.0414 60.7096 57.5576 63.0442 56.979C65.3788 56.4011 68.4514 58.9473 69.9064 62.6668Z" fill="#E28061"/>
<path fill-rule="evenodd" clip-rule="evenodd" d="M73.1493 67.8976L60.2715 37.3791L71.8827 18.8481L75.9561 67.204C76.0959 68.8617 73.7991 69.4294 73.1493 67.8976Z" fill="#744628"/>
<path fill-rule="evenodd" clip-rule="evenodd" d="M96.0996 74.5473L115.261 72.0809C116.144 71.967 116.902 72.7134 116.794 73.5977C116.396 76.8525 114.671 83.6494 107.198 84.6117C99.7356 85.5721 96.2616 79.4659 95.0076 76.4179C94.6656 75.5881 95.2092 74.6619 96.0996 74.5473Z" fill="white"/>
<path fill-rule="evenodd" clip-rule="evenodd" d="M127.584 8.66849C113.992 30.0472 61.1087 23.7431 61.1087 23.7431C61.1087 23.7431 61.1375 18.7035 62.8481 15.0835C69.4955 1.02267 86.4377 1.82844 92.4791 4.23076C105.809 9.53182 127.584 8.66849 127.584 8.66849ZM130.296 7.2524C129.937 6.97602 129.577 6.69963 129.214 6.43044C127.325 7.3771 121.732 8.32616 106.286 2.18456C96.7307 -1.61527 69.9353 -2.88988 59.4215 19.3491C56.7155 25.0741 56.6699 33.0454 56.6699 33.0454C56.6699 33.0454 56.6771 33.0466 56.6795 33.0472C56.8235 33.073 61.2713 33.8602 68.2955 34.3416C79.6961 35.1234 97.8731 35.0946 115.416 29.6797C117.92 28.9063 120.411 28.0256 122.867 27.0196C123.74 26.4152 124.608 25.6364 125.429 24.6994C128.626 21.0488 131.095 14.9744 130.296 7.2524Z" fill="#935838"/>
<path fill-rule="evenodd" clip-rule="evenodd" d="M61.1094 23.7432C61.1094 23.7432 61.1382 18.7029 62.8494 15.0836C69.4962 1.02216 86.4384 1.82853 92.4798 4.23085C105.811 9.53131 127.585 8.66859 127.585 8.66859C113.992 30.0467 61.1094 23.7432 61.1094 23.7432Z" fill="#A86548"/>
</g>
</svg>
