<svg width="268" height="361" viewBox="0 0 268 361" fill="none" xmlns="http://www.w3.org/2000/svg">
<path fill-rule="evenodd" clip-rule="evenodd" d="M0.77832 120.896L126.039 224.878L0.77832 120.896Z" fill="#F7F1DC"/>
<path fill-rule="evenodd" clip-rule="evenodd" d="M0 121.83L125.261 225.812L126.817 223.944L1.5559 119.963L0 121.83Z" fill="#F7F1DC"/>
<path fill-rule="evenodd" clip-rule="evenodd" d="M45.748 117.902L121.926 220.973L45.748 117.902Z" fill="#F7F1DC"/>
<path fill-rule="evenodd" clip-rule="evenodd" d="M120.947 221.694L44.7695 118.623L46.7272 117.181L122.905 220.253L120.947 221.694Z" fill="#F7F1DC"/>
<path fill-rule="evenodd" clip-rule="evenodd" d="M100.96 115.352L121.926 220.974L100.96 115.352Z" fill="#F7F1DC"/>
<path fill-rule="evenodd" clip-rule="evenodd" d="M120.732 221.209L99.7666 115.587L102.154 115.115L123.119 220.737L120.732 221.209Z" fill="#F7F1DC"/>
<path fill-rule="evenodd" clip-rule="evenodd" d="M266.132 120.414L132.121 220.973L266.132 120.414Z" fill="#F7F1DC"/>
<path fill-rule="evenodd" clip-rule="evenodd" d="M132.853 221.944L131.391 220.003L265.401 119.443L266.863 121.384L132.853 221.944Z" fill="#F7F1DC"/>
<path fill-rule="evenodd" clip-rule="evenodd" d="M220.763 119.642L133.825 218.059L220.763 119.642Z" fill="#F7F1DC"/>
<path fill-rule="evenodd" clip-rule="evenodd" d="M134.737 218.862L132.912 217.256L219.85 118.838L221.675 120.445L134.737 218.862Z" fill="#F7F1DC"/>
<path fill-rule="evenodd" clip-rule="evenodd" d="M166.67 117.902L132.121 220.973L166.67 117.902Z" fill="#F7F1DC"/>
<path fill-rule="evenodd" clip-rule="evenodd" d="M133.275 221.359L130.968 220.588L165.516 117.517L167.824 118.287L133.275 221.359Z" fill="#F7F1DC"/>
<path fill-rule="evenodd" clip-rule="evenodd" d="M52.2587 238.413L31.8672 340.18L52.2587 360.534H235.783V238.413L215.391 218.06L52.2587 238.413Z" fill="#9E7D3E"/>
<path fill-rule="evenodd" clip-rule="evenodd" d="M215.391 340.18L235.783 360.534V238.413L215.391 218.06V340.18Z" fill="#BC934E"/>
<path fill-rule="evenodd" clip-rule="evenodd" d="M31.8672 340.18H215.391V218.059H31.8672V340.18Z" fill="#EBC276"/>
<path fill-rule="evenodd" clip-rule="evenodd" d="M215.391 218.06L229.461 281.155V305.58L215.391 340.181L231.704 306.19V280.952L215.391 218.06Z" fill="#9E7D3E"/>
<path fill-rule="evenodd" clip-rule="evenodd" d="M235.783 238.413L228.036 267.751L229.22 272.006L235.783 238.413Z" fill="#9E7D3E"/>
<path fill-rule="evenodd" clip-rule="evenodd" d="M227.164 313.349L235.782 360.534L228.627 308.361L227.164 313.349Z" fill="#9E7D3E"/>
<path fill-rule="evenodd" clip-rule="evenodd" d="M117.676 340.18H133.824V218.059H117.676V340.18Z" fill="#ED816F"/>
<path fill-rule="evenodd" clip-rule="evenodd" d="M117.472 340.18L137.455 360.534H153.604L133.62 340.18H117.472Z" fill="#B34937"/>
<path fill-rule="evenodd" clip-rule="evenodd" d="M117.676 289.296H133.824V268.943H117.676V289.296Z" fill="#DB5843"/>
<path fill-rule="evenodd" clip-rule="evenodd" d="M31.8672 287.18H215.391V271.061H31.8672V287.18Z" fill="#ED816F"/>
<path fill-rule="evenodd" clip-rule="evenodd" d="M235.753 307.142L235.78 291.023L215.422 271.043L215.395 287.162L235.753 307.142Z" fill="#B34937"/>
<path fill-rule="evenodd" clip-rule="evenodd" d="M144.021 330.615H204.175V294.996H144.021V330.615Z" fill="#F8EFE3"/>
<path fill-rule="evenodd" clip-rule="evenodd" d="M149.322 303.421H196.222V300.924H149.322V303.421Z" fill="#BC934E"/>
<path fill-rule="evenodd" clip-rule="evenodd" d="M149.322 308.306H196.222V305.81H149.322V308.306Z" fill="#BC934E"/>
<path fill-rule="evenodd" clip-rule="evenodd" d="M149.322 313.394H172.773V310.898H149.322V313.394Z" fill="#BC934E"/>
<path fill-rule="evenodd" clip-rule="evenodd" d="M149.322 326.679H150.342V318.673H149.322V326.679Z" fill="#BC934E"/>
<path fill-rule="evenodd" clip-rule="evenodd" d="M151.355 326.679H152.726V318.673H151.355V326.679Z" fill="#BC934E"/>
<path fill-rule="evenodd" clip-rule="evenodd" d="M154.479 326.679H155.376V318.673H154.479V326.679Z" fill="#BC934E"/>
<path fill-rule="evenodd" clip-rule="evenodd" d="M156.11 326.679H157.007V318.673H156.11V326.679Z" fill="#BC934E"/>
<path fill-rule="evenodd" clip-rule="evenodd" d="M158.697 326.679H160.068V318.673H158.697V326.679Z" fill="#BC934E"/>
<path fill-rule="evenodd" clip-rule="evenodd" d="M161.96 326.679H163.331V318.673H161.96V326.679Z" fill="#BC934E"/>
<path fill-rule="evenodd" clip-rule="evenodd" d="M163.859 326.679H164.756V318.673H163.859V326.679Z" fill="#BC934E"/>
<path fill-rule="evenodd" clip-rule="evenodd" d="M165.49 326.679H166.386V318.673H165.49V326.679Z" fill="#BC934E"/>
<path fill-rule="evenodd" clip-rule="evenodd" d="M168.083 326.679H169.103V318.673H168.083V326.679Z" fill="#BC934E"/>
<path fill-rule="evenodd" clip-rule="evenodd" d="M170.116 326.679H171.487V318.673H170.116V326.679Z" fill="#BC934E"/>
<path fill-rule="evenodd" clip-rule="evenodd" d="M173.239 326.679H174.135V318.673H173.239V326.679Z" fill="#BC934E"/>
<path fill-rule="evenodd" clip-rule="evenodd" d="M174.871 326.679H175.767V318.673H174.871V326.679Z" fill="#BC934E"/>
<path fill-rule="evenodd" clip-rule="evenodd" d="M177.463 326.679H178.482V318.673H177.463V326.679Z" fill="#BC934E"/>
<path fill-rule="evenodd" clip-rule="evenodd" d="M179.293 326.679H180.663V318.673H179.293V326.679Z" fill="#BC934E"/>
<mask id="mask0" mask-type="alpha" maskUnits="userSpaceOnUse" x="47" y="0" width="87" height="122">
<path fill-rule="evenodd" clip-rule="evenodd" d="M47.3916 0.5H133.835V121.926H47.3916V0.5Z" fill="white"/>
</mask>
<g mask="url(#mask0)">
<path fill-rule="evenodd" clip-rule="evenodd" d="M47.3916 121.926H47.4978C48.7331 116.266 60.1925 111.83 74.149 111.83C88.1056 111.83 99.5649 116.266 100.8 121.926H100.913C100.913 19.4713 133.835 0.499756 133.835 0.499756C86.0938 0.499756 47.3916 54.8643 47.3916 121.926Z" fill="#FF4101"/>
</g>
<mask id="mask1" mask-type="alpha" maskUnits="userSpaceOnUse" x="133" y="0" width="88" height="122">
<path fill-rule="evenodd" clip-rule="evenodd" d="M133.766 0.5H220.209V121.926H133.766V0.5Z" fill="white"/>
</mask>
<g mask="url(#mask1)">
<path fill-rule="evenodd" clip-rule="evenodd" d="M220.209 121.926C218.974 116.266 207.409 111.83 193.452 111.83C179.495 111.83 168.036 116.266 166.801 121.926H166.688C166.688 19.4713 133.766 0.499756 133.766 0.499756H133.766C181.507 0.499756 220.209 54.8643 220.209 121.926Z" fill="#FF4101"/>
</g>
<mask id="mask2" mask-type="alpha" maskUnits="userSpaceOnUse" x="100" y="0" width="67" height="122">
<path fill-rule="evenodd" clip-rule="evenodd" d="M100.913 0.5H166.925V121.926H100.913V0.5Z" fill="white"/>
</mask>
<g mask="url(#mask2)">
<path fill-rule="evenodd" clip-rule="evenodd" d="M133.835 0.499756C133.835 0.499756 100.913 19.4708 100.913 121.926H101.051C102.57 116.265 116.666 111.83 133.835 111.83H133.835C151.003 111.83 165.268 116.265 166.787 121.926H166.925C166.925 19.4708 133.835 0.499756 133.835 0.499756Z" fill="#320050"/>
</g>
<mask id="mask3" mask-type="alpha" maskUnits="userSpaceOnUse" x="0" y="0" width="134" height="122">
<path fill-rule="evenodd" clip-rule="evenodd" d="M0.0166016 0.5H133.834V121.926H0.0166016V0.5Z" fill="white"/>
</mask>
<g mask="url(#mask3)">
<path fill-rule="evenodd" clip-rule="evenodd" d="M133.834 0.499756C59.9289 0.500256 0.0166016 54.8643 0.0166016 121.926C0.0166016 121.926 6.25123 111.856 22.0657 111.856C38.9362 111.856 47.3915 121.926 47.3915 121.926C47.3915 54.8643 86.0932 0.500256 133.834 0.499756Z" fill="#320050"/>
</g>
<mask id="mask4" mask-type="alpha" maskUnits="userSpaceOnUse" x="133" y="0" width="135" height="122">
<path fill-rule="evenodd" clip-rule="evenodd" d="M133.836 0.5H267.654V121.926H133.836V0.5Z" fill="white"/>
</mask>
<g mask="url(#mask4)">
<path fill-rule="evenodd" clip-rule="evenodd" d="M133.836 0.499756C181.578 0.499756 219.956 54.8818 220.279 121.926C220.279 121.926 228.39 111.856 241.934 111.856C259.209 111.856 267.654 121.926 267.654 121.926C267.654 54.8638 207.741 0.499756 133.836 0.499756Z" fill="#320050"/>
</g>
<path fill-rule="evenodd" clip-rule="evenodd" d="M149.841 238.855C150.161 238.855 150.458 239.012 150.637 239.277C150.744 239.435 150.8 239.62 150.8 239.811C150.8 240.34 150.37 240.769 149.841 240.769C149.313 240.769 148.882 240.34 148.882 239.811C148.882 239.284 149.313 238.855 149.841 238.855ZM160.104 243.075L160.095 243.066C160.092 243.063 160.089 243.061 160.089 243.061C159.968 242.938 159.809 242.871 159.638 242.871C159.291 242.871 159.008 243.154 159.008 243.502C159.008 243.673 159.076 243.835 159.199 243.953C159.339 244.091 159.465 244.243 159.576 244.408C159.91 244.902 160.086 245.479 160.086 246.078C160.086 246.381 160.04 246.682 159.951 246.97L159.95 246.972C159.947 246.981 159.944 246.991 159.941 247.003L159.939 247.006C159.794 247.453 159.548 247.851 159.21 248.19C158.645 248.754 157.891 249.065 157.092 249.065C156.644 249.065 156.209 248.967 155.815 248.781C155.508 248.636 155.223 248.437 154.975 248.19C154.876 248.089 154.782 247.984 154.701 247.876C154.697 247.866 154.689 247.854 154.68 247.845C154.598 247.736 154.526 247.622 154.464 247.505C154.308 247.225 154.203 246.921 154.146 246.602C154.139 246.559 154.134 246.513 154.134 246.464C154.134 246.276 154.203 246.095 154.328 245.955L155.352 244.905C155.589 244.661 155.657 244.301 155.524 243.987C155.392 243.673 155.085 243.471 154.744 243.471H152.192C151.85 243.471 151.543 243.673 151.411 243.987C151.278 244.301 151.346 244.661 151.585 244.905L152.607 245.955C152.733 246.095 152.801 246.276 152.801 246.464C152.801 246.513 152.798 246.559 152.789 246.602C152.734 246.915 152.63 247.216 152.479 247.491C152.343 247.746 152.167 247.981 151.959 248.19C151.702 248.446 151.407 248.649 151.088 248.794C150.702 248.972 150.279 249.065 149.842 249.065C149.044 249.065 148.292 248.754 147.727 248.19C147.388 247.851 147.143 247.453 146.996 247.003C146.993 246.992 146.99 246.982 146.986 246.973V246.972C146.895 246.683 146.851 246.382 146.851 246.078C146.851 245.479 147.027 244.902 147.361 244.408C147.92 243.583 148.847 243.09 149.842 243.09C150.72 243.09 151.545 242.75 152.166 242.129C152.786 241.511 153.127 240.687 153.127 239.811C153.127 238.936 152.786 238.113 152.166 237.494C151.545 236.874 150.72 236.534 149.842 236.534C148.751 236.534 147.732 237.074 147.121 237.978C146.753 238.52 146.558 239.155 146.558 239.811C146.558 240.625 146.858 241.405 147.404 242.006C147.475 242.086 147.515 242.189 147.515 242.295C147.515 242.428 147.454 242.551 147.349 242.634C147.196 242.744 147.049 242.867 146.911 242.997L146.91 242.998C146.075 243.81 145.615 244.895 145.615 246.057C145.615 247.191 146.057 248.26 146.858 249.065C147.297 249.505 147.815 249.838 148.381 250.051C148.669 250.169 149.593 250.316 149.734 250.32C149.775 250.322 149.817 250.325 149.859 250.325H149.861C150.199 250.323 150.53 250.283 150.851 250.205C150.993 251.515 152.104 252.534 153.455 252.534C154.808 252.534 155.92 251.512 156.061 250.2C156.065 250.2 156.07 250.202 156.074 250.203C156.403 250.283 156.744 250.326 157.093 250.326C157.13 250.326 157.167 250.325 157.204 250.323C157.879 250.271 158.407 250.12 158.56 250.066C159.156 249.848 159.701 249.497 160.153 249.031C160.927 248.234 161.353 247.185 161.353 246.075C161.353 244.945 160.909 243.879 160.104 243.075Z" fill="#FF4100"/>
<path fill-rule="evenodd" clip-rule="evenodd" d="M157.094 240.769C157.623 240.769 158.053 240.34 158.053 239.812C158.053 239.62 157.996 239.435 157.889 239.277C157.71 239.012 157.413 238.854 157.094 238.854C156.565 238.854 156.135 239.284 156.135 239.812C156.135 240.34 156.565 240.769 157.094 240.769Z" fill="#FF4100"/>
<path fill-rule="evenodd" clip-rule="evenodd" d="M148.662 246.678C148.315 246.678 148.033 246.959 148.033 247.305C148.033 247.651 148.315 247.932 148.662 247.932C148.788 247.932 148.909 247.895 149.014 247.825C149.187 247.708 149.291 247.514 149.291 247.305C149.291 246.959 149.009 246.678 148.662 246.678Z" fill="#FF4100"/>
<path fill-rule="evenodd" clip-rule="evenodd" d="M150.006 246.169C150.006 246.514 150.288 246.796 150.635 246.796C150.76 246.796 150.882 246.759 150.986 246.689C151.16 246.572 151.263 246.377 151.263 246.169C151.263 245.823 150.981 245.541 150.635 245.541C150.288 245.541 150.006 245.823 150.006 246.169Z" fill="#FF4100"/>
<path fill-rule="evenodd" clip-rule="evenodd" d="M148.662 244.404C148.315 244.404 148.033 244.686 148.033 245.032C148.033 245.377 148.315 245.659 148.662 245.659C148.788 245.659 148.909 245.622 149.014 245.552C149.187 245.435 149.291 245.24 149.291 245.032C149.291 244.686 149.009 244.404 148.662 244.404Z" fill="#FF4100"/>
<path fill-rule="evenodd" clip-rule="evenodd" d="M155.951 246.689C156.055 246.759 156.177 246.796 156.303 246.796C156.649 246.796 156.931 246.514 156.931 246.169C156.931 245.823 156.649 245.541 156.303 245.541C155.956 245.541 155.674 245.823 155.674 246.169C155.674 246.377 155.778 246.572 155.951 246.689Z" fill="#FF4100"/>
<path fill-rule="evenodd" clip-rule="evenodd" d="M157.646 245.032C157.646 245.24 157.75 245.435 157.924 245.552C158.027 245.622 158.149 245.659 158.275 245.659C158.621 245.659 158.903 245.378 158.903 245.032C158.903 244.686 158.621 244.404 158.275 244.404C157.929 244.404 157.646 244.686 157.646 245.032Z" fill="#FF4100"/>
<path fill-rule="evenodd" clip-rule="evenodd" d="M158.275 246.678C157.929 246.678 157.646 246.959 157.646 247.305C157.646 247.514 157.75 247.708 157.924 247.825C158.027 247.895 158.149 247.932 158.275 247.932C158.621 247.932 158.903 247.651 158.903 247.305C158.903 246.959 158.621 246.678 158.275 246.678Z" fill="#FF4100"/>
<path fill-rule="evenodd" clip-rule="evenodd" d="M198.93 247.275C198.036 247.275 197.679 246.479 197.679 245.757C197.679 244.788 197.992 244.046 199.006 244.046C199.739 244.046 200.171 244.552 200.171 245.693C200.171 246.812 199.631 247.275 198.93 247.275ZM200.968 242.819C200.504 242.819 200.256 243.077 200.256 243.562V243.756H200.235C199.944 243.174 199.341 242.819 198.575 242.819C197.249 242.819 196.105 243.777 196.105 245.811C196.105 247.361 196.968 248.437 198.629 248.437C199.254 248.437 199.868 248.093 200.149 247.684H200.171V248.007C200.171 249.244 199.782 249.728 198.823 249.728C197.938 249.728 197.809 248.921 197.151 248.921C196.806 248.921 196.505 249.201 196.505 249.588C196.505 250.353 197.679 250.891 198.877 250.891C200.516 250.891 201.68 250.019 201.68 248.125V243.562C201.68 243.077 201.453 242.819 200.968 242.819Z" fill="#4C4C4C"/>
<path fill-rule="evenodd" clip-rule="evenodd" d="M193.616 246.554C193.616 247.135 193.088 247.694 192.226 247.694C191.686 247.694 191.353 247.404 191.353 247.048C191.353 246.575 191.708 246.371 192.366 246.274L192.937 246.188C193.121 246.155 193.444 246.102 193.616 245.94V246.554ZM195.353 248.125C195.353 247.877 195.191 247.727 195.191 247.07V244.433C195.191 243.303 194.145 242.819 192.635 242.819C191.018 242.819 190.134 243.616 190.134 244.24C190.134 244.562 190.403 244.842 190.802 244.842C191.427 244.842 191.46 243.981 192.625 243.981C193.153 243.981 193.616 244.175 193.616 244.627C193.616 245.079 193.315 245.165 192.937 245.208L191.978 245.316C190.77 245.456 189.778 245.822 189.778 247.124C189.778 248.114 190.662 248.728 191.557 248.728C192.387 248.728 193.099 248.491 193.714 247.813C193.735 248.297 193.962 248.728 194.64 248.728C195.018 248.728 195.353 248.48 195.353 248.125Z" fill="#4C4C4C"/>
<path fill-rule="evenodd" clip-rule="evenodd" d="M185.783 247.231H184.71V245.143H185.567C186.43 245.143 187.249 245.262 187.249 246.198C187.249 247.092 186.473 247.231 185.783 247.231ZM184.71 242.13H185.697C186.355 242.13 186.98 242.335 186.98 243.077C186.98 243.691 186.581 244.024 185.751 244.024H184.71V242.13ZM187.66 244.433V244.412C188.393 244.121 188.749 243.497 188.749 242.841C188.749 241.129 187.206 240.839 185.912 240.839H183.976C183.351 240.839 182.941 241.086 182.941 241.872V247.554C182.941 248.34 183.351 248.587 183.976 248.587H186.161C187.692 248.587 189.018 247.921 189.018 246.295C189.018 245.229 188.479 244.648 187.66 244.433Z" fill="#4C4C4C"/>
<path fill-rule="evenodd" clip-rule="evenodd" d="M180.75 243.992C181.213 243.992 181.461 243.852 181.461 243.476C181.461 243.099 181.213 242.959 180.75 242.959H180.275V242.001C180.275 241.485 179.963 241.216 179.488 241.216C179.014 241.216 178.701 241.485 178.701 242.001V242.959H178.431C177.989 242.959 177.807 243.131 177.807 243.476C177.807 243.82 177.989 243.992 178.431 243.992H178.701V247.328C178.701 248.254 179.176 248.728 180.319 248.728C181.073 248.728 181.461 248.48 181.461 248.028C181.461 247.694 181.257 247.501 180.911 247.501H180.685C180.404 247.501 180.275 247.372 180.275 247.135V243.992H180.75Z" fill="#4C4C4C"/>
<path fill-rule="evenodd" clip-rule="evenodd" d="M174.464 243.917C175.165 243.917 175.704 244.444 175.79 245.165H173.03C173.203 244.401 173.677 243.917 174.464 243.917ZM176.308 246.725C175.672 246.725 175.672 247.501 174.486 247.501C173.569 247.501 173.03 246.898 173.03 246.069H176.588C177.117 246.069 177.278 245.929 177.278 245.391C177.278 244.1 176.243 242.819 174.432 242.819C172.567 242.819 171.456 244.046 171.456 245.875C171.456 247.242 172.286 248.728 174.486 248.728C175.434 248.728 176.955 248.286 176.955 247.339C176.955 247.048 176.685 246.725 176.308 246.725Z" fill="#4C4C4C"/>
<path fill-rule="evenodd" clip-rule="evenodd" d="M167.003 248.114C167.185 248.62 167.531 248.728 168.081 248.728C168.631 248.728 168.975 248.62 169.159 248.114L171.401 242.001C171.477 241.797 171.509 241.625 171.509 241.485C171.509 240.893 171.056 240.699 170.614 240.699C170.205 240.699 169.946 240.947 169.784 241.474L168.124 246.747H168.102L166.507 241.474C166.345 240.947 166.086 240.699 165.611 240.699C165.17 240.699 164.717 240.893 164.717 241.485C164.717 241.625 164.749 241.797 164.824 242.001L167.003 248.114Z" fill="#4C4C4C"/>
</svg>
