<svg width="143" height="256" viewBox="0 0 143 256" fill="none" xmlns="http://www.w3.org/2000/svg">
<path fill-rule="evenodd" clip-rule="evenodd" d="M123.442 490.533L93.1676 490.223C81.548 426.063 66.0451 271.954 73.123 251.248L108.947 247.925C99.9553 246.357 116.151 428.649 123.442 490.533Z" fill="#4B89DC"/>
<path fill-rule="evenodd" clip-rule="evenodd" d="M128.696 236.868C87.3924 214.203 98.9538 255.792 98.2436 286.773C98.2436 286.773 95.243 331.648 112.326 331.248C131.531 330.799 138.978 331.952 139.295 313.632C139.889 279.297 128.696 236.868 128.696 236.868Z" fill="#5B646D"/>
<path fill-rule="evenodd" clip-rule="evenodd" d="M9.99233 141.576L5.50586 264.444H23.1333L32.1207 140.203L9.99233 141.576Z" fill="#F79673"/>
<path fill-rule="evenodd" clip-rule="evenodd" d="M19.7131 186.997L8.26953 181.444V186.577L19.6867 189.585L19.7131 186.997Z" fill="#E5876A"/>
<path fill-rule="evenodd" clip-rule="evenodd" d="M83.3906 223.321L87.4235 220.817L94.2773 238.556L90.1819 240.923C87.0606 235.09 84.9065 229.201 83.3906 223.321Z" fill="white"/>
<path fill-rule="evenodd" clip-rule="evenodd" d="M3.01836 175.265C3.11029 174.283 3.18239 173.444 3.22625 172.82C3.28574 171.962 3.38067 171.069 3.50264 170.153C4.16717 163.335 5.87596 146.224 7.34441 135.092C9.21363 120.927 17.921 115.192 17.921 115.192C47.0774 91.2712 103.948 96.8092 120.564 127.821L117.587 128.588C117.233 134.588 119.618 139.061 112.843 138.94L27.6534 137.421L29.6782 153.379L31.6953 157.905L24.5369 185.479V185.478C24.5369 185.478 2.02337 185.888 3.01836 175.265Z" fill="#569CE8"/>
<path fill-rule="evenodd" clip-rule="evenodd" d="M55.7116 490.858L25.4647 490.554C19.4978 427.385 17.5727 275.658 26.4753 255.273L62.5918 252.001C53.7385 250.456 53.873 429.931 55.7116 490.858Z" fill="#4B89DC"/>
<path fill-rule="evenodd" clip-rule="evenodd" d="M38.934 244.764L58.0828 240.555L86.3824 246.699L89.5494 273.622L74.088 294.738H37.3652L38.934 244.764Z" fill="#4B89DC"/>
<path fill-rule="evenodd" clip-rule="evenodd" d="M122.003 129.277C116.14 112.441 90.8708 109.299 90.8708 109.299L41.4523 110.604L17.8879 115.158C17.2366 119.634 16.5 178.04 16.5 178.04L19.1551 270.275C20.6236 292.51 102.543 287.997 105.108 272.567L105.145 215.495L104.392 169.191L114.962 171.58C114.196 157.513 127.64 142.752 122.003 129.277Z" fill="#569CE8"/>
<path fill-rule="evenodd" clip-rule="evenodd" d="M135.453 205.47C133.553 186.536 123.745 169.063 117.902 148.642L97.3867 161.449C130.951 204.429 113.676 275.811 113.676 275.811C113.506 276.703 128.396 282.702 128.803 282.768C130.187 282.993 138.229 233.134 135.453 205.47Z" fill="#FFAA82"/>
<path fill-rule="evenodd" clip-rule="evenodd" d="M91.2559 149.893L110.169 203.116L139.181 186.982L122.777 131.573L91.2559 149.893Z" fill="#569CE8"/>
<path fill-rule="evenodd" clip-rule="evenodd" d="M40.027 112.599L52.3502 143.284L84.044 112.105C86.4473 109.741 85.2306 105.655 81.9236 104.986L63.3426 101.23C57.3126 101.517 51.5619 101.874 41.8313 107.421C40.0216 108.452 39.2513 110.668 40.027 112.599Z" fill="#F79673"/>
<path fill-rule="evenodd" clip-rule="evenodd" d="M51.756 142.651L44.4258 152.588L49.7919 137.712L51.756 142.651Z" fill="#4B89DC"/>
<path fill-rule="evenodd" clip-rule="evenodd" d="M114.961 200.15L132.627 190.836L133.561 194.671L115.383 204.217L114.961 200.15Z" fill="#F79673"/>
<path fill-rule="evenodd" clip-rule="evenodd" d="M44.6191 162.325C45.509 154.497 41.6341 147.556 38.1757 140.827C35.3608 135.35 33.0656 129.554 32.3013 123.406C31.6993 118.565 32.21 113.539 35.0375 109.445C38.5789 104.318 45.5582 103.063 51.3287 102.853C53.4004 102.777 53.4076 99.5587 51.3287 99.6349C45.0115 99.8653 38.5699 101.232 33.9284 105.803C30.2278 109.448 28.9222 114.739 28.8633 119.772C28.7954 125.61 30.503 131.459 32.7243 136.802C36.1689 145.088 42.4711 152.88 41.3968 162.325C41.1625 164.385 44.3872 164.362 44.6191 162.325Z" fill="#363D44"/>
<path fill-rule="evenodd" clip-rule="evenodd" d="M39.0996 170.535L45.5244 170.94L46.4395 161.911L40.0147 161.507L39.0996 170.535Z" fill="#DDE3E8"/>
<path fill-rule="evenodd" clip-rule="evenodd" d="M36.3457 176.293L48.872 177.083L49.6777 169.063L37.1514 168.273L36.3457 176.293Z" fill="#FBFBFF"/>
<path fill-rule="evenodd" clip-rule="evenodd" d="M51.7878 181.139L47.1367 177.246L47.9695 168.955L53.4341 164.754L51.7878 181.139Z" fill="#DDE3E8"/>
<path fill-rule="evenodd" clip-rule="evenodd" d="M33.9503 166.49L37.1515 168.273L36.3458 176.294L32.4434 177L33.9503 166.49Z" fill="#363D44"/>
<path fill-rule="evenodd" clip-rule="evenodd" d="M113.224 258.863C104.901 151.304 113.468 115.443 113.468 115.443C116.293 108.827 105.992 105.532 103.021 110.991C93.814 127.743 94.3164 223.785 98.211 279.177C99.6128 299.116 113.945 268.189 113.224 258.863Z" fill="#5B646D"/>
<path fill-rule="evenodd" clip-rule="evenodd" d="M74.6152 101.881C83.8778 103.494 90.7231 108.982 93.0941 118.153C93.3885 119.291 93.6144 120.45 93.743 121.619C94.1371 125.194 91.9278 129.112 91.6214 132.732C91.0254 139.779 93.9112 146.581 94.7686 153.476C95.0186 155.485 98.2096 155.51 97.9567 153.476C97.0512 146.195 94.2627 139.195 94.8918 131.764C95.2295 127.772 97.4994 124.263 96.7586 120.145C96.5423 118.943 96.2947 117.752 95.9733 116.572C93.2917 106.73 85.3631 100.535 75.463 98.8105C73.4526 98.4607 72.5928 101.528 74.6152 101.881Z" fill="#363D44"/>
<path fill-rule="evenodd" clip-rule="evenodd" d="M92.4659 126.652C90.7608 131.049 86.678 134.191 84.2651 138.2C82.0828 141.829 80.1715 146.333 80.9574 150.625C81.327 152.642 84.3991 151.786 84.0313 149.779C83.3025 145.796 85.966 141.271 88.1056 138.094C90.5469 134.47 93.9254 131.662 95.5404 127.499C96.2837 125.581 93.2002 124.759 92.4659 126.652Z" fill="#363D44"/>
<path fill-rule="evenodd" clip-rule="evenodd" d="M92.7206 157.211L84.5479 180.182C82.594 185.089 81.1045 187.755 74.7452 185.738C74.5061 186.614 74.2766 187.492 74.0879 188.379L75.0673 188.712C79.6937 190.285 84.7859 187.932 86.3949 183.408L96.1892 155.882C97.7983 151.359 94.299 152.774 92.7206 157.211Z" fill="white"/>
<path fill-rule="evenodd" clip-rule="evenodd" d="M71.7566 184.723L75.1742 185.482C76.1367 185.695 76.7448 186.639 76.5267 187.58L76.4143 188.064C76.1956 189.005 75.23 189.599 74.2681 189.386L70.8499 188.628C69.888 188.414 69.2793 187.47 69.4974 186.53L69.6104 186.045C69.8285 185.105 70.7946 184.51 71.7566 184.723Z" fill="#363D44"/>
<path fill-rule="evenodd" clip-rule="evenodd" d="M84.6034 154.917L87.1144 179.114C87.8534 184.329 88.6711 187.26 95.3344 186.737C95.3597 187.644 95.3753 188.55 95.3489 189.455L94.3172 189.558C89.4438 190.041 85.0475 186.599 84.553 181.835L81.544 152.839C81.0495 148.075 84.1186 150.243 84.6034 154.917Z" fill="white"/>
<path fill-rule="evenodd" clip-rule="evenodd" d="M98.5025 186.426L94.9599 186.39C93.9842 186.38 93.1772 187.169 93.167 188.144L93.1622 188.603C93.152 189.578 93.9421 190.384 94.9191 190.394L98.461 190.43C99.4368 190.44 100.244 189.651 100.254 188.677L100.259 188.217C100.27 187.242 99.4788 186.437 98.5025 186.426Z" fill="#363D44"/>
<path fill-rule="evenodd" clip-rule="evenodd" d="M94.5037 155.533L96.2732 155.847C97.1919 156.01 98.0715 155.415 98.2385 154.516L98.4104 153.593C98.5768 152.695 97.9675 151.835 97.0495 151.672L95.2794 151.357C94.3607 151.194 93.4811 151.79 93.314 152.688L93.1428 153.612C92.9758 154.51 93.585 155.37 94.5037 155.533Z" fill="#DDE3E8"/>
<path fill-rule="evenodd" clip-rule="evenodd" d="M82.1548 153.477L83.9531 153.434C84.8862 153.412 85.6246 152.655 85.6018 151.742L85.5783 150.804C85.5561 149.891 84.781 149.169 83.8479 149.191L82.0496 149.234C81.1165 149.256 80.3781 150.014 80.4009 150.926L80.4237 151.865C80.4466 152.777 81.2217 153.499 82.1548 153.477Z" fill="#DDE3E8"/>
<path fill-rule="evenodd" clip-rule="evenodd" d="M73.5001 101.961C75.0214 119.337 50.1881 123.757 48.6667 106.382L45.5195 70.9837L69.9191 65.0869L73.5001 101.961Z" fill="#F79673"/>
<path fill-rule="evenodd" clip-rule="evenodd" d="M33.1745 57.7241C34.9457 63.3803 33.4581 68.8775 29.8506 70.0019C26.2438 71.1263 21.8835 67.4525 20.1122 61.7957C18.3403 56.1395 19.8286 50.6423 23.436 49.5179C27.0429 48.3935 31.4032 52.0679 33.1745 57.7241Z" fill="#F79673"/>
<path fill-rule="evenodd" clip-rule="evenodd" d="M81.4787 57.239C80.244 63.0356 82.2394 68.3702 85.9358 69.1532C89.6321 69.9368 93.6295 65.8724 94.8649 60.0758C96.0996 54.2786 94.1042 48.9446 90.4078 48.161C86.7115 47.378 82.7135 51.4424 81.4787 57.239Z" fill="#F79673"/>
<path fill-rule="evenodd" clip-rule="evenodd" d="M59.5514 94.8584C96.2123 93.9032 87.3824 30.161 87.3824 30.161C87.1264 16.5644 72.0705 5.56156 56.674 5.85016C41.2775 6.13876 26.1057 18.3902 26.361 31.9874C26.361 31.9874 21.1451 95.5778 59.5514 94.8584Z" fill="#FFA786"/>
<path fill-rule="evenodd" clip-rule="evenodd" d="M40.6489 55.5501C40.7781 58.3119 42.3788 60.4815 44.2233 60.3951C46.0685 60.3093 47.4589 57.9999 47.3297 55.2381C47.2005 52.4757 45.5999 50.3067 43.7553 50.3931C41.9101 50.4789 40.5198 52.7877 40.6489 55.5501Z" fill="#363D44"/>
<path fill-rule="evenodd" clip-rule="evenodd" d="M68.7466 55.1647C68.8758 57.9265 70.4764 60.0961 72.321 60.0097C74.1662 59.9239 75.5565 57.6145 75.4273 54.8527C75.2982 52.0903 73.6975 49.9213 71.8529 50.0077C70.0078 50.0935 68.6174 52.4023 68.7466 55.1647Z" fill="#363D44"/>
<path fill-rule="evenodd" clip-rule="evenodd" d="M61.2651 67.2518C61.0951 68.2442 59.5383 68.4992 58.7019 68.5766C57.6606 68.6726 56.8159 68.18 56.3821 67.2548C55.7043 65.807 53.5629 67.0676 54.2371 68.507C55.1305 70.4144 57.1481 71.201 59.1627 71.015C60.9785 70.847 63.3176 69.9104 63.6606 67.9112C63.9286 66.347 61.5349 65.6774 61.2651 67.2518Z" fill="#D38462"/>
<path fill-rule="evenodd" clip-rule="evenodd" d="M48.8537 76.0409L68.5925 75.6989C69.2198 75.6881 69.7305 76.2089 69.5881 76.7249C68.9031 79.2065 66.4625 85.2443 58.9003 85.3751C52.4137 85.4879 49.1379 79.4681 48.0852 77.0483C47.8671 76.5485 48.251 76.0511 48.8537 76.0409Z" fill="white"/>
<path fill-rule="evenodd" clip-rule="evenodd" d="M76.5831 48.9422H66.2006C64.94 48.9422 63.918 47.9216 63.918 46.6628C63.918 45.404 64.94 44.384 66.2006 44.384H76.5831C77.8436 44.384 78.8657 45.404 78.8657 46.6628C78.8657 47.9216 77.8436 48.9422 76.5831 48.9422Z" fill="#363D44"/>
<path fill-rule="evenodd" clip-rule="evenodd" d="M49.1807 48.9422H38.7982C37.5377 48.9422 36.5156 47.9216 36.5156 46.6628C36.5156 45.404 37.5377 44.384 38.7982 44.384H49.1807C50.4413 44.384 51.4633 45.404 51.4633 46.6628C51.4633 47.9216 50.4413 48.9422 49.1807 48.9422Z" fill="#363D44"/>
<path fill-rule="evenodd" clip-rule="evenodd" d="M28.6991 66.4252L35.8257 23.2588H77.2896L86.6171 65.9068C86.6171 65.9068 113.2 2.75022 57.4169 3.87282C2.40392 4.97982 28.6991 66.4252 28.6991 66.4252Z" fill="#363D44"/>
<path fill-rule="evenodd" clip-rule="evenodd" d="M32.8264 24.1525C32.8264 24.1525 29.0291 -0.893868 69.2193 1.69333C69.2193 1.69333 86.0404 3.81253 87.3827 19.2751C87.3827 19.2751 93.1754 62.9305 32.8264 24.1525Z" fill="#363D44"/>
<path fill-rule="evenodd" clip-rule="evenodd" d="M38.7339 15.0311L26.6426 8.41907C26.6426 8.41907 38.7802 3.22727 42.7553 12.1061C46.7311 20.9843 42.7553 12.7013 42.7553 12.7013L38.7339 15.0311Z" fill="#363D44"/>
<path fill-rule="evenodd" clip-rule="evenodd" d="M34.6627 14.3465L33.9219 0.600464C33.9219 0.600464 44.7346 8.16826 39.2712 16.2197C33.8077 24.2705 38.764 16.5335 38.764 16.5335L34.6627 14.3465Z" fill="#363D44"/>
</svg>
