<svg width="195" height="196" viewBox="0 0 195 196" fill="none" xmlns="http://www.w3.org/2000/svg">
<mask id="mask0" mask-type="alpha" maskUnits="userSpaceOnUse" x="0" y="0" width="195" height="196">
<path fill-rule="evenodd" clip-rule="evenodd" d="M0 0.601318H194.733V195.733H0V0.601318Z" fill="white"/>
</mask>
<g mask="url(#mask0)">
<path fill-rule="evenodd" clip-rule="evenodd" d="M194.734 98.1672C194.734 152.052 151.141 195.733 97.3668 195.733C43.593 195.733 0 152.052 0 98.1672C0 44.2829 43.593 0.601318 97.3668 0.601318C151.141 0.601318 194.734 44.2829 194.734 98.1672Z" fill="#F9F9F9"/>
</g>
<path fill-rule="evenodd" clip-rule="evenodd" d="M186.634 98.1672C186.634 147.569 146.668 187.617 97.3664 187.617C48.0656 187.617 8.09961 147.569 8.09961 98.1672C8.09961 48.7656 48.0656 8.71729 97.3664 8.71729C146.668 8.71729 186.634 48.7656 186.634 98.1672Z" fill="#320050"/>
<mask id="mask1" mask-type="alpha" maskUnits="userSpaceOnUse" x="8" y="8" width="179" height="180">
<path fill-rule="evenodd" clip-rule="evenodd" d="M8.09961 98.1671C8.09961 147.569 48.0662 187.617 97.367 187.617C146.668 187.617 186.634 147.569 186.634 98.1671C186.634 48.7655 146.668 8.71777 97.367 8.71777C48.0662 8.71777 8.09961 48.7655 8.09961 98.1671Z" fill="white"/>
</mask>
<g mask="url(#mask1)">
<path fill-rule="evenodd" clip-rule="evenodd" d="M66.2232 201.972L68.5812 169.264L46.4837 170.64L45.3438 201.972H66.2232Z" fill="#F79673"/>
</g>
<mask id="mask2" mask-type="alpha" maskUnits="userSpaceOnUse" x="8" y="8" width="179" height="180">
<path fill-rule="evenodd" clip-rule="evenodd" d="M8.09961 98.1671C8.09961 147.569 48.0662 187.617 97.367 187.617C146.668 187.617 186.634 147.569 186.634 98.1671C186.634 48.7655 146.668 8.71777 97.367 8.71777C48.0662 8.71777 8.09961 48.7655 8.09961 98.1671Z" fill="white"/>
</mask>
<g mask="url(#mask2)">
<path fill-rule="evenodd" clip-rule="evenodd" d="M64.2807 201.973L68.1537 187.003L66.1395 182.467L64.1175 166.476L149.188 167.998C155.953 168.119 153.573 163.637 153.925 157.624L156.898 156.856C140.305 125.781 83.5143 120.232 54.3987 144.202C54.3987 144.202 45.7035 149.948 43.8375 164.142C42.3705 175.297 40.6641 192.442 40.0005 199.274C39.8793 200.193 39.7845 201.087 39.7245 201.948C39.7239 201.956 39.7233 201.965 39.7227 201.973H64.2807Z" fill="#FF4100"/>
</g>
<mask id="mask3" mask-type="alpha" maskUnits="userSpaceOnUse" x="8" y="8" width="179" height="180">
<path fill-rule="evenodd" clip-rule="evenodd" d="M8.09961 98.1671C8.09961 147.569 48.0662 187.617 97.367 187.617C146.668 187.617 186.634 147.569 186.634 98.1671C186.634 48.7655 146.668 8.71777 97.367 8.71777C48.0662 8.71777 8.09961 48.7655 8.09961 98.1671Z" fill="white"/>
</mask>
<g mask="url(#mask3)">
<path fill-rule="evenodd" clip-rule="evenodd" d="M140.81 201.972L140.75 198.31L151.306 200.704C150.541 186.609 163.967 171.818 158.338 158.315C152.483 141.445 127.249 138.297 127.249 138.297L77.8998 139.604L54.3678 144.167C53.8368 147.831 53.2488 187.544 53.0508 201.972H140.81Z" fill="#FF4100"/>
</g>
<mask id="mask4" mask-type="alpha" maskUnits="userSpaceOnUse" x="8" y="8" width="179" height="180">
<path fill-rule="evenodd" clip-rule="evenodd" d="M8.09961 98.1671C8.09961 147.569 48.0662 187.617 97.367 187.617C146.668 187.617 186.634 147.569 186.634 98.1671C186.634 48.7655 146.668 8.71777 97.367 8.71777C48.0662 8.71777 8.09961 48.7655 8.09961 98.1671Z" fill="white"/>
</mask>
<g mask="url(#mask4)">
<path fill-rule="evenodd" clip-rule="evenodd" d="M162.7 201.973C159.763 194.186 156.663 186.207 154.242 177.72L133.756 190.554C136.576 194.177 139.029 198.006 141.171 201.973H162.7Z" fill="#FFAA82"/>
</g>
<mask id="mask5" mask-type="alpha" maskUnits="userSpaceOnUse" x="8" y="8" width="179" height="180">
<path fill-rule="evenodd" clip-rule="evenodd" d="M8.09961 98.1671C8.09961 147.569 48.0662 187.617 97.367 187.617C146.668 187.617 186.634 147.569 186.634 98.1671C186.634 48.7655 146.668 8.71777 97.367 8.71777C48.0662 8.71777 8.09961 48.7655 8.09961 98.1671Z" fill="white"/>
</mask>
<g mask="url(#mask5)">
<path fill-rule="evenodd" clip-rule="evenodd" d="M171.312 201.973L159.109 160.616L127.633 178.973L135.777 201.973H171.312Z" fill="#FF4100"/>
</g>
<mask id="mask6" mask-type="alpha" maskUnits="userSpaceOnUse" x="8" y="8" width="179" height="180">
<path fill-rule="evenodd" clip-rule="evenodd" d="M8.09961 98.1671C8.09961 147.569 48.0662 187.617 97.367 187.617C146.668 187.617 186.634 147.569 186.634 98.1671C186.634 48.7655 146.668 8.71777 97.367 8.71777C48.0662 8.71777 8.09961 48.7655 8.09961 98.1671Z" fill="white"/>
</mask>
<g mask="url(#mask6)">
<path fill-rule="evenodd" clip-rule="evenodd" d="M76.4758 141.603C76.4758 141.603 75.118 155.326 93.643 155.326C112.168 155.326 120.431 141.108 120.431 141.108C122.831 138.739 121.616 134.645 118.314 133.975L99.7588 130.211C93.7372 130.498 87.9946 130.856 78.2776 136.414C76.4704 137.448 75.7012 139.668 76.4758 141.603Z" fill="#F79673"/>
</g>
<mask id="mask7" mask-type="alpha" maskUnits="userSpaceOnUse" x="8" y="8" width="179" height="180">
<path fill-rule="evenodd" clip-rule="evenodd" d="M8.09961 98.1671C8.09961 147.569 48.0662 187.617 97.367 187.617C146.668 187.617 186.634 147.569 186.634 98.1671C186.634 48.7655 146.668 8.71777 97.367 8.71777C48.0662 8.71777 8.09961 48.7655 8.09961 98.1671Z" fill="white"/>
</mask>
<g mask="url(#mask7)">
<path fill-rule="evenodd" clip-rule="evenodd" d="M109.902 130.944C111.422 148.355 86.6229 152.784 85.1037 135.373L81.9609 99.9029L106.326 93.994L109.902 130.944Z" fill="#F79673"/>
</g>
<mask id="mask8" mask-type="alpha" maskUnits="userSpaceOnUse" x="8" y="8" width="179" height="180">
<path fill-rule="evenodd" clip-rule="evenodd" d="M8.09961 98.1671C8.09961 147.569 48.0662 187.617 97.367 187.617C146.668 187.617 186.634 147.569 186.634 98.1671C186.634 48.7655 146.668 8.71777 97.367 8.71777C48.0662 8.71777 8.09961 48.7655 8.09961 98.1671Z" fill="white"/>
</mask>
<g mask="url(#mask8)">
<path fill-rule="evenodd" clip-rule="evenodd" d="M69.6317 86.6162C71.4005 92.284 69.9149 97.7924 66.3125 98.9191C62.7107 100.046 58.3565 96.3645 56.5877 90.6961C54.8183 85.0284 56.3045 79.5199 59.9069 78.3932C63.5087 77.2665 67.8629 80.9484 69.6317 86.6162Z" fill="#F79673"/>
</g>
<mask id="mask9" mask-type="alpha" maskUnits="userSpaceOnUse" x="8" y="8" width="179" height="180">
<path fill-rule="evenodd" clip-rule="evenodd" d="M8.09961 98.1671C8.09961 147.569 48.0662 187.617 97.367 187.617C146.668 187.617 186.634 147.569 186.634 98.1671C186.634 48.7655 146.668 8.71777 97.367 8.71777C48.0662 8.71777 8.09961 48.7655 8.09961 98.1671Z" fill="white"/>
</mask>
<g mask="url(#mask9)">
<path fill-rule="evenodd" clip-rule="evenodd" d="M117.869 86.1301C116.636 91.9386 118.628 97.2841 122.32 98.0687C126.011 98.8539 130.003 94.7812 131.236 88.9721C132.469 83.1636 130.477 77.8187 126.785 77.0335C123.094 76.2489 119.102 80.3216 117.869 86.1301Z" fill="#F79673"/>
</g>
<mask id="mask10" mask-type="alpha" maskUnits="userSpaceOnUse" x="8" y="8" width="179" height="180">
<path fill-rule="evenodd" clip-rule="evenodd" d="M8.09961 98.1671C8.09961 147.569 48.0662 187.617 97.367 187.617C146.668 187.617 186.634 147.569 186.634 98.1671C186.634 48.7655 146.668 8.71777 97.367 8.71777C48.0662 8.71777 8.09961 48.7655 8.09961 98.1671Z" fill="white"/>
</mask>
<g mask="url(#mask10)">
<path fill-rule="evenodd" clip-rule="evenodd" d="M95.9715 123.826C132.581 122.869 123.763 58.9967 123.763 58.9967C123.508 45.3723 108.473 34.347 93.0981 34.6362C77.7231 34.9254 62.5725 47.2018 62.8275 60.8268C62.8275 60.8268 57.6189 124.547 95.9715 123.826Z" fill="#FFA786"/>
</g>
<mask id="mask11" mask-type="alpha" maskUnits="userSpaceOnUse" x="8" y="8" width="179" height="180">
<path fill-rule="evenodd" clip-rule="evenodd" d="M8.09961 98.1671C8.09961 147.569 48.0662 187.617 97.367 187.617C146.668 187.617 186.634 147.569 186.634 98.1671C186.634 48.7655 146.668 8.71777 97.367 8.71777C48.0662 8.71777 8.09961 48.7655 8.09961 98.1671Z" fill="white"/>
</mask>
<g mask="url(#mask11)">
<path fill-rule="evenodd" clip-rule="evenodd" d="M77.0962 84.4377C77.2252 87.2052 78.8236 89.3792 80.6662 89.2927C82.5082 89.2067 83.8966 86.8926 83.7676 84.1251C83.6386 81.3571 82.0402 79.1836 80.1982 79.2702C78.3556 79.3562 76.9672 81.6697 77.0962 84.4377Z" fill="#744628"/>
</g>
<mask id="mask12" mask-type="alpha" maskUnits="userSpaceOnUse" x="8" y="8" width="179" height="180">
<path fill-rule="evenodd" clip-rule="evenodd" d="M8.09961 98.1671C8.09961 147.569 48.0662 187.617 97.367 187.617C146.668 187.617 186.634 147.569 186.634 98.1671C186.634 48.7655 146.668 8.71777 97.367 8.71777C48.0662 8.71777 8.09961 48.7655 8.09961 98.1671Z" fill="white"/>
</mask>
<g mask="url(#mask12)">
<path fill-rule="evenodd" clip-rule="evenodd" d="M105.155 84.0516C105.284 86.8191 106.882 88.9931 108.724 88.9065C110.567 88.8206 111.955 86.5064 111.826 83.739C111.697 80.9709 110.099 78.7975 108.257 78.8841C106.414 78.9701 105.026 81.2836 105.155 84.0516Z" fill="#744628"/>
</g>
<mask id="mask13" mask-type="alpha" maskUnits="userSpaceOnUse" x="8" y="8" width="179" height="180">
<path fill-rule="evenodd" clip-rule="evenodd" d="M8.09961 98.1671C8.09961 147.569 48.0662 187.617 97.367 187.617C146.668 187.617 186.634 147.569 186.634 98.1671C186.634 48.7655 146.668 8.71777 97.367 8.71777C48.0662 8.71777 8.09961 48.7655 8.09961 98.1671Z" fill="white"/>
</mask>
<g mask="url(#mask13)">
<path fill-rule="evenodd" clip-rule="evenodd" d="M97.6848 96.1633C97.515 97.1577 95.9604 97.4133 95.1252 97.4908C94.0854 97.587 93.2418 97.0934 92.8086 96.1663C92.1318 94.7156 89.9934 95.9781 90.6666 97.4211C91.5588 99.3318 93.5736 100.121 95.5854 99.9342C97.3986 99.7659 99.7344 98.8273 100.077 96.8241C100.345 95.2567 97.9542 94.5857 97.6848 96.1633Z" fill="#D38462"/>
</g>
<mask id="mask14" mask-type="alpha" maskUnits="userSpaceOnUse" x="8" y="8" width="179" height="180">
<path fill-rule="evenodd" clip-rule="evenodd" d="M8.09961 98.1671C8.09961 147.569 48.0662 187.617 97.367 187.617C146.668 187.617 186.634 147.569 186.634 98.1671C186.634 48.7655 146.668 8.71777 97.367 8.71777C48.0662 8.71777 8.09961 48.7655 8.09961 98.1671Z" fill="white"/>
</mask>
<g mask="url(#mask14)">
<path fill-rule="evenodd" clip-rule="evenodd" d="M85.29 104.97L105.001 104.628C105.628 104.617 106.138 105.139 105.995 105.656C105.311 108.143 102.874 114.193 95.3226 114.324C88.845 114.437 85.5738 108.405 84.5226 105.98C84.3048 105.479 84.6882 104.981 85.29 104.97Z" fill="white"/>
</g>
<mask id="mask15" mask-type="alpha" maskUnits="userSpaceOnUse" x="8" y="8" width="179" height="180">
<path fill-rule="evenodd" clip-rule="evenodd" d="M8.09961 98.1671C8.09961 147.569 48.0662 187.617 97.367 187.617C146.668 187.617 186.634 147.569 186.634 98.1671C186.634 48.7655 146.668 8.71777 97.367 8.71777C48.0662 8.71777 8.09961 48.7655 8.09961 98.1671Z" fill="white"/>
</mask>
<g mask="url(#mask15)">
<path fill-rule="evenodd" clip-rule="evenodd" d="M112.979 77.8163H102.611C101.353 77.8163 100.332 76.7936 100.332 75.5322C100.332 74.2709 101.353 73.2488 102.611 73.2488H112.979C114.238 73.2488 115.259 74.2709 115.259 75.5322C115.259 76.7936 114.238 77.8163 112.979 77.8163Z" fill="#935838"/>
</g>
<mask id="mask16" mask-type="alpha" maskUnits="userSpaceOnUse" x="8" y="8" width="179" height="180">
<path fill-rule="evenodd" clip-rule="evenodd" d="M8.09961 98.1671C8.09961 147.569 48.0662 187.617 97.367 187.617C146.668 187.617 186.634 147.569 186.634 98.1671C186.634 48.7655 146.668 8.71777 97.367 8.71777C48.0662 8.71777 8.09961 48.7655 8.09961 98.1671Z" fill="white"/>
</mask>
<g mask="url(#mask16)">
<path fill-rule="evenodd" clip-rule="evenodd" d="M85.6161 77.8163H75.2482C73.9894 77.8163 72.9688 76.7936 72.9688 75.5322C72.9688 74.2709 73.9894 73.2488 75.2482 73.2488H85.6161C86.875 73.2488 87.8955 74.2709 87.8955 75.5322C87.8955 76.7936 86.875 77.8163 85.6161 77.8163Z" fill="#935838"/>
</g>
<mask id="mask17" mask-type="alpha" maskUnits="userSpaceOnUse" x="8" y="8" width="179" height="180">
<path fill-rule="evenodd" clip-rule="evenodd" d="M8.09961 98.1671C8.09961 147.569 48.0662 187.617 97.367 187.617C146.668 187.617 186.634 147.569 186.634 98.1671C186.634 48.7655 146.668 8.71777 97.367 8.71777C48.0662 8.71777 8.09961 48.7655 8.09961 98.1671Z" fill="white"/>
</mask>
<g mask="url(#mask17)">
<path fill-rule="evenodd" clip-rule="evenodd" d="M65.163 95.335L72.2796 52.0804H113.686L123 94.8156C123 94.8156 149.546 31.5298 93.8406 32.6547C38.9046 33.764 65.163 95.335 65.163 95.335Z" fill="#A86548"/>
</g>
<mask id="mask18" mask-type="alpha" maskUnits="userSpaceOnUse" x="8" y="8" width="179" height="180">
<path fill-rule="evenodd" clip-rule="evenodd" d="M8.09961 98.1671C8.09961 147.569 48.0662 187.617 97.367 187.617C146.668 187.617 186.634 147.569 186.634 98.1671C186.634 48.7655 146.668 8.71777 97.367 8.71777C48.0662 8.71777 8.09961 48.7655 8.09961 98.1671Z" fill="white"/>
</mask>
<g mask="url(#mask18)">
<path fill-rule="evenodd" clip-rule="evenodd" d="M69.2852 52.9759C69.2852 52.9759 65.4932 27.8783 105.627 30.4708C105.627 30.4708 122.425 32.5943 123.765 48.0886C123.765 48.0886 129.55 91.8332 69.2852 52.9759Z" fill="#A86548"/>
</g>
<mask id="mask19" mask-type="alpha" maskUnits="userSpaceOnUse" x="8" y="8" width="179" height="180">
<path fill-rule="evenodd" clip-rule="evenodd" d="M8.09961 98.1671C8.09961 147.569 48.0662 187.617 97.367 187.617C146.668 187.617 186.634 147.569 186.634 98.1671C186.634 48.7655 146.668 8.71777 97.367 8.71777C48.0662 8.71777 8.09961 48.7655 8.09961 98.1671Z" fill="white"/>
</mask>
<g mask="url(#mask19)">
<path fill-rule="evenodd" clip-rule="evenodd" d="M75.1838 43.8359L63.1094 37.2104C63.1094 37.2104 75.23 32.0079 79.1996 40.9049C83.1698 49.8013 79.1996 41.5013 79.1996 41.5013L75.1838 43.8359Z" fill="#A86548"/>
</g>
<mask id="mask20" mask-type="alpha" maskUnits="userSpaceOnUse" x="8" y="8" width="179" height="180">
<path fill-rule="evenodd" clip-rule="evenodd" d="M8.09961 98.1671C8.09961 147.569 48.0662 187.617 97.367 187.617C146.668 187.617 186.634 147.569 186.634 98.1671C186.634 48.7655 146.668 8.71777 97.367 8.71777C48.0662 8.71777 8.09961 48.7655 8.09961 98.1671Z" fill="white"/>
</mask>
<g mask="url(#mask20)">
<path fill-rule="evenodd" clip-rule="evenodd" d="M71.1168 43.1497L70.377 29.3756C70.377 29.3756 81.1746 36.9589 75.7188 45.0268C70.263 53.094 75.2124 45.3412 75.2124 45.3412L71.1168 43.1497Z" fill="#A86548"/>
</g>
</svg>
