<svg width="298" height="326" viewBox="0 0 298 326" fill="none" xmlns="http://www.w3.org/2000/svg">
<path fill-rule="evenodd" clip-rule="evenodd" d="M108.968 100.333C93.0888 117.903 60.6805 164.36 67.9871 169.26L83.2436 180.427L129.929 118.425L108.968 100.333Z" fill="#EF9C81"/>
<path fill-rule="evenodd" clip-rule="evenodd" d="M87.8084 127.55L85.1681 131.377L107.8 147.814L110.699 143.908L87.8084 127.55Z" fill="#E08C75"/>
<path fill-rule="evenodd" clip-rule="evenodd" d="M212.434 318.522H253.772C254.437 311.466 250.269 305.746 244.46 305.746H213.638L212.434 318.522Z" fill="#774236"/>
<path fill-rule="evenodd" clip-rule="evenodd" d="M173.507 192.98L207.658 180.051C220.821 175.067 235.036 184.301 235.832 198.352L236.841 305.694C236.841 309.376 209.768 313.461 209.768 309.779L202.688 222.354C202.688 222.354 178.63 244.447 170.343 245.493C162.056 246.539 152.499 247.585 152.499 247.585L149.57 191.633L173.507 192.98Z" fill="#3A6893"/>
<path fill-rule="evenodd" clip-rule="evenodd" d="M206.111 213.595L214.484 311.801C212.559 311.633 210.824 311.061 209.768 309.779C206.149 305.386 202.688 222.354 202.688 222.354C202.688 222.354 175.431 252.007 150.605 250.011L145.824 253.433C145.404 260.293 195.497 227.523 206.111 213.595Z" fill="#2F5B7F"/>
<path fill-rule="evenodd" clip-rule="evenodd" d="M134.517 318.574H162.922C168.768 318.574 173.508 313.835 173.508 307.99V213.595H134.517V318.574Z" fill="#3A6893"/>
<path fill-rule="evenodd" clip-rule="evenodd" d="M124.918 117.894L187.331 118.689L193.698 134.607L196.049 185.327C177.65 216.538 142.927 216.35 121.721 192.552L118.623 139.082L124.918 117.894Z" fill="#2F5B7F"/>
<path fill-rule="evenodd" clip-rule="evenodd" d="M176.118 51.9369C174.368 55.6903 174.887 59.6359 177.278 60.7493C179.669 61.8626 183.025 59.7224 184.776 55.9682C186.526 52.2148 186.007 48.2692 183.617 47.1558C181.225 46.0424 177.869 48.1835 176.118 51.9369Z" fill="#EF9C81"/>
<path fill-rule="evenodd" clip-rule="evenodd" d="M137.859 51.9369C139.609 55.6903 139.09 59.6359 136.699 60.7493C134.308 61.8626 130.952 59.7224 129.201 55.9682C127.451 52.2148 127.97 48.2692 130.361 47.1558C132.752 46.0424 136.108 48.1835 137.859 51.9369Z" fill="#EF9C81"/>
<path fill-rule="evenodd" clip-rule="evenodd" d="M141.966 318.61C139.591 317.792 137.759 315.63 137.467 313.022L123.549 259.089H152.15L155.819 318.61H141.966Z" fill="#47291F"/>
<path fill-rule="evenodd" clip-rule="evenodd" d="M59.772 308.455H34.47C34.2369 308.455 34.0094 308.475 33.7843 308.504C32.9007 308.233 32.0388 307.88 31.2073 307.42C26.879 305.022 25.3001 300.303 27.2075 295.801C28.7311 292.207 32.3448 289.561 35.9985 288.274C38.2551 287.479 41.1158 286.878 43.1633 288.46C44.8376 289.753 49.6744 291.542 48.0483 293.075C43.5142 297.347 46.1401 304.366 50.6694 300.098C57.4224 293.733 54.5866 283.042 46.4181 279.281C38.3056 275.547 27.773 280.002 22.1655 286.123C16.3097 292.516 14.5962 302.388 19.6694 309.74C22.5653 313.936 29.6187 318.757 34.47 318.757H59.772C62.6719 318.757 65.0447 316.44 65.0447 313.606C65.0447 310.773 62.6719 308.455 59.772 308.455Z" fill="#D3D3D3"/>
<path fill-rule="evenodd" clip-rule="evenodd" d="M56.3422 306.87H37.8918C37.722 306.87 37.5561 306.886 37.3919 306.907C36.7479 306.705 36.119 306.441 35.5126 306.097C32.3564 304.307 31.2052 300.786 32.5959 297.426C33.707 294.743 36.3425 292.768 39.0069 291.808C40.6515 291.214 42.7375 290.766 44.2307 291.946C45.4515 292.912 45.8529 294.451 44.6665 295.595C41.3604 298.784 46.4016 303.818 49.7044 300.632C54.6287 295.882 52.5611 287.903 46.6043 285.096C40.6891 282.309 33.0084 285.634 28.9197 290.203C24.6492 294.973 23.3995 302.342 27.0989 307.829C29.2105 310.961 34.3542 314.559 37.8918 314.559H56.3422C58.457 314.559 60.1873 312.829 60.1873 310.715C60.1873 308.6 58.457 306.87 56.3422 306.87Z" fill="#47291F"/>
<path fill-rule="evenodd" clip-rule="evenodd" d="M85.1683 125.491L112.812 147.059L142.006 122.609L108.968 100.333L85.1683 125.491Z" fill="#FFBC42"/>
<path fill-rule="evenodd" clip-rule="evenodd" d="M198.173 116.473L115.317 114.246C107.057 114.024 106.735 105.677 106.735 105.677C106.753 94.0401 140.369 82.5788 157.103 83.0282C180.831 83.6666 209.065 94.4206 209.025 105.897L208.981 106.725C208.686 112.238 203.822 116.625 198.173 116.473Z" fill="#FFBC42"/>
<path fill-rule="evenodd" clip-rule="evenodd" d="M206.507 100.13C217.449 116.893 250.723 140.325 245.748 204.955L233.688 209.347C228.524 170.242 215.944 147.967 185.453 117.082L206.507 100.13Z" fill="#EF9C81"/>
<path fill-rule="evenodd" clip-rule="evenodd" d="M124.687 110.67L187.101 111.465L193.468 127.383L196.05 185.328C170.085 213.766 142.696 209.126 121.491 185.328L118.393 131.858L124.687 110.67Z" fill="#FFBC42"/>
<path fill-rule="evenodd" clip-rule="evenodd" d="M150.132 195.203C150.132 195.203 158.007 228.972 153.452 253.723C148.898 278.474 109.902 266.481 109.902 266.481C109.902 266.481 116.495 290.469 89.3027 302.207L84.397 315.727H58.2483C58.2483 315.727 47.3216 274.469 74.7296 233.31C97.6684 198.864 99.804 196.075 99.804 196.075L150.132 195.203Z" fill="#774236"/>
<path fill-rule="evenodd" clip-rule="evenodd" d="M156.85 187.507L145.451 146.075C121.649 134.766 95.9217 144.738 95.9217 144.738L85.1681 188.461L96.2822 204.916L121.784 203.249L147.284 204.916L156.85 187.507Z" fill="#774236"/>
<path fill-rule="evenodd" clip-rule="evenodd" d="M138.858 144.002C140.257 144.417 151.025 140.681 158.83 137.848C161.761 136.784 164.481 139.853 163.079 142.638L149.307 169.992L138.858 144.002Z" fill="#774236"/>
<path fill-rule="evenodd" clip-rule="evenodd" d="M121.649 155.266L108.342 152.423C103.904 152.423 100.305 156.021 100.305 160.459V177.919C100.305 182.357 103.904 185.954 108.342 185.954H120.064H121.623H134.956C139.394 185.954 142.993 182.357 142.993 177.919V160.459C142.993 156.021 139.394 152.423 134.956 152.423L121.649 155.266Z" fill="#F6F7FA"/>
<path fill-rule="evenodd" clip-rule="evenodd" d="M140.052 203.922H102.085C95.2755 203.922 93.6774 200.588 88.4327 193.293L85.1683 188.461C85.1683 181.652 95.2755 173.528 102.085 173.528H140.052C146.861 173.528 156.85 180.699 156.85 187.507L153.741 193.165C149.669 201.765 146.861 203.922 140.052 203.922Z" fill="#F6F7FA"/>
<mask id="mask0" mask-type="alpha" maskUnits="userSpaceOnUse" x="0" y="0" width="298" height="326">
<path fill-rule="evenodd" clip-rule="evenodd" d="M0 325.512H298V0H0V325.512Z" fill="white"/>
</mask>
<g mask="url(#mask0)">
<path fill-rule="evenodd" clip-rule="evenodd" d="M86.8134 318.61H125.284V260.396H86.8134V318.61Z" fill="#774236"/>
<path fill-rule="evenodd" clip-rule="evenodd" d="M142.306 85.0016C142.306 85.0016 141.066 104.931 156.657 104.932C175.261 104.932 172.16 84.7781 172.16 84.7781C172.16 84.7781 155.509 80.7412 142.306 85.0016Z" fill="white"/>
<path fill-rule="evenodd" clip-rule="evenodd" d="M115.434 168.411C114.785 168.407 114.279 168.988 114.394 169.626C114.722 171.447 116.024 174.675 121.137 174.834C126.272 174.994 127.755 171.642 128.183 169.747C128.33 169.099 127.829 168.487 127.165 168.483L115.434 168.411Z" fill="#47291F"/>
<path fill-rule="evenodd" clip-rule="evenodd" d="M104.491 318.574H61.9955C58.752 318.574 56.098 315.933 56.098 312.706V293.859C56.098 290.631 58.9915 298.411 62.2351 298.411L104.491 304.265C107.735 304.265 110.389 306.906 110.389 310.133V312.706C110.389 315.933 107.735 318.574 104.491 318.574Z" fill="#774236"/>
<path fill-rule="evenodd" clip-rule="evenodd" d="M123.901 318.61C121.526 317.792 119.695 315.63 119.403 313.022L105.484 259.089H134.085L137.754 318.61H123.901Z" fill="#8C4C44"/>
<path fill-rule="evenodd" clip-rule="evenodd" d="M91.6627 197.843C91.6627 197.843 80.3675 204.025 82.826 221.439C84.5916 233.952 136.329 241.833 140.906 257.259L154.87 232.159C154.87 232.159 164.017 213.596 150.55 198.823L91.6627 197.843Z" fill="#F6F7FA"/>
<path fill-rule="evenodd" clip-rule="evenodd" d="M112.812 159.997C112.812 161.513 111.582 162.742 110.067 162.742C108.55 162.742 107.321 161.513 107.321 159.997C107.321 158.481 108.55 157.252 110.067 157.252C111.582 157.252 112.812 158.481 112.812 159.997Z" fill="#47291F"/>
<path fill-rule="evenodd" clip-rule="evenodd" d="M135.42 159.997C135.42 161.513 134.191 162.742 132.675 162.742C131.159 162.742 129.929 161.513 129.929 159.997C129.929 158.481 131.159 157.252 132.675 157.252C134.191 157.252 135.42 158.481 135.42 159.997Z" fill="#47291F"/>
<path fill-rule="evenodd" clip-rule="evenodd" d="M76.239 318.574C76.239 311.46 80.1298 305.693 84.9282 305.693H105.472C110.271 305.693 114.161 311.46 114.161 318.574H76.239Z" fill="#8C4C44"/>
<path fill-rule="evenodd" clip-rule="evenodd" d="M146.527 152.971C147.111 152.451 152.405 148.616 156.364 145.763C157.489 144.953 158.945 146.197 158.321 147.435L150.028 163.919L146.527 152.971Z" fill="white"/>
<path fill-rule="evenodd" clip-rule="evenodd" d="M101.225 144.002C99.8262 144.417 89.0582 140.681 81.2533 137.848C78.3222 136.784 75.6017 139.853 77.0044 142.638L90.7765 169.992L101.225 144.002Z" fill="#774236"/>
<path fill-rule="evenodd" clip-rule="evenodd" d="M93.5558 152.971C92.9718 152.451 87.6783 148.616 83.7194 145.763C82.5939 144.953 81.1384 146.197 81.7616 147.435L90.0551 163.919L93.5558 152.971Z" fill="white"/>
<path fill-rule="evenodd" clip-rule="evenodd" d="M89.0361 172.734C89.0361 172.734 90.2217 184.161 93.289 197.776L82.6307 201.182L66.8431 167.742L89.0361 172.734Z" fill="#EF9C81"/>
<path fill-rule="evenodd" clip-rule="evenodd" d="M102.757 212.199C97.6507 217.764 93.1158 216.272 87.0325 213.68L82.6313 201.181L86.394 193.044C91.3022 195.691 96.2576 197.867 98.5175 201.624C100.953 205.672 102.319 208.994 102.757 212.199Z" fill="#EF9C81"/>
<path fill-rule="evenodd" clip-rule="evenodd" d="M93.4218 201.04C93.0197 202.103 93.5596 203.302 94.6219 203.704L105.17 207.698C106.232 208.1 107.43 207.56 107.833 206.498C108.235 205.435 107.695 204.237 106.633 203.834L95.3436 197.819C94.2814 197.416 93.824 199.978 93.4218 201.04Z" fill="#EF9C81"/>
<path fill-rule="evenodd" clip-rule="evenodd" d="M100.664 210.954C99.5582 211.08 98.7555 212.087 98.8813 213.193L100.26 225.332C100.386 226.438 101.393 227.241 102.501 227.115C103.607 226.99 104.409 225.982 104.283 224.876L102.904 212.737C102.778 211.631 101.771 210.828 100.664 210.954Z" fill="#EF9C81"/>
<path fill-rule="evenodd" clip-rule="evenodd" d="M96.8175 213.789C95.7112 213.915 94.9085 214.923 95.0343 216.029L96.4129 228.168C96.5387 229.274 97.5465 230.077 98.6527 229.951C99.7598 229.825 100.562 228.817 100.436 227.711L99.0573 215.572C98.9315 214.466 97.9238 213.664 96.8175 213.789Z" fill="#EF9C81"/>
<path fill-rule="evenodd" clip-rule="evenodd" d="M92.1307 211.082C91.0244 211.205 90.2193 212.211 90.3427 213.317L91.6941 225.459C91.8175 226.566 92.8236 227.371 93.9299 227.247C95.037 227.124 95.8413 226.118 95.7179 225.012L94.3665 212.87C94.2439 211.763 93.237 210.958 92.1307 211.082Z" fill="#EF9C81"/>
<path fill-rule="evenodd" clip-rule="evenodd" d="M88.488 208.455C87.3817 208.578 86.5766 209.584 86.7 210.691L88.0514 222.833C88.1748 223.939 89.1809 224.744 90.2872 224.621C91.3943 224.497 92.1986 223.491 92.0752 222.385L90.7238 210.243C90.6012 209.137 89.5943 208.332 88.488 208.455Z" fill="#EF9C81"/>
<path fill-rule="evenodd" clip-rule="evenodd" d="M232.209 225.467C238.068 230.234 242.339 228.1 247.982 224.654L245.796 204.316L234.973 201.302C232.458 209.08 230.826 212.899 230.826 217.284C230.826 219.669 232.177 222.233 232.209 225.467Z" fill="#EF9C81"/>
<path fill-rule="evenodd" clip-rule="evenodd" d="M236.012 213.364C236.852 214.129 236.914 215.442 236.149 216.282L228.558 224.622C227.793 225.462 226.48 225.525 225.64 224.76C224.799 223.995 224.738 222.682 225.502 221.842L232.838 211.363C233.603 210.523 235.172 212.599 236.012 213.364Z" fill="#EF9C81"/>
<path fill-rule="evenodd" clip-rule="evenodd" d="M234.099 223.932C235.211 223.896 236.152 224.777 236.188 225.889L236.582 238.1C236.618 239.213 235.737 240.152 234.624 240.188C233.511 240.225 232.571 239.343 232.535 238.231L232.141 226.021C232.105 224.907 232.986 223.968 234.099 223.932Z" fill="#EF9C81"/>
<path fill-rule="evenodd" clip-rule="evenodd" d="M238.316 226.18C239.429 226.144 240.369 227.025 240.405 228.138L240.799 240.349C240.835 241.461 239.954 242.401 238.841 242.437C237.728 242.473 236.788 241.592 236.752 240.479L236.358 228.269C236.322 227.156 237.203 226.216 238.316 226.18Z" fill="#EF9C81"/>
<path fill-rule="evenodd" clip-rule="evenodd" d="M242.561 222.822C243.674 222.784 244.616 223.662 244.654 224.775L245.076 236.985C245.115 238.098 244.236 239.04 243.123 239.078C242.01 239.117 241.068 238.237 241.029 237.125L240.608 224.915C240.57 223.803 241.448 222.861 242.561 222.822Z" fill="#EF9C81"/>
<path fill-rule="evenodd" clip-rule="evenodd" d="M245.785 219.696C246.897 219.657 247.839 220.536 247.878 221.649L248.3 233.859C248.339 234.971 247.46 235.913 246.346 235.952C245.234 235.99 244.292 235.111 244.253 233.998L243.832 221.789C243.792 220.676 244.672 219.734 245.785 219.696Z" fill="#EF9C81"/>
<path fill-rule="evenodd" clip-rule="evenodd" d="M206.507 100.13L236.841 135.681L204.417 154.712L178.785 119.471L206.507 100.13Z" fill="#FFBC42"/>
<path fill-rule="evenodd" clip-rule="evenodd" d="M195.913 142.447L186.81 126.3L196.05 185.328L195.913 142.447Z" fill="#E29924"/>
<path fill-rule="evenodd" clip-rule="evenodd" d="M115.101 140.686L128.75 121.414L121.142 140.686H115.101Z" fill="#E29924"/>
<path fill-rule="evenodd" clip-rule="evenodd" d="M16.6696 300.987C16.6696 300.987 14.4466 290.986 19.35 282.75L22.684 289.503L16.6696 300.987Z" fill="#D3D3D3"/>
<path fill-rule="evenodd" clip-rule="evenodd" d="M20.2911 293.07C20.2911 293.07 19.9018 282.832 26.2054 275.611L28.2714 282.853L20.2911 293.07Z" fill="#D3D3D3"/>
<path fill-rule="evenodd" clip-rule="evenodd" d="M157.426 212.583C157.426 212.583 163.69 225.295 156.85 238.826L154.856 228.938L157.426 212.583Z" fill="#F6F7FA"/>
<path fill-rule="evenodd" clip-rule="evenodd" d="M34.0291 280.598C34.0291 280.598 42.8473 275.382 52.199 277.486L46.8142 282.751L34.0291 280.598Z" fill="#D3D3D3"/>
<path fill-rule="evenodd" clip-rule="evenodd" d="M111.015 141.826C111.015 141.826 116.23 137.578 122.509 137.504L118.46 141.506C118.46 141.506 124.237 138.887 127.862 138.738L125.898 141.676L111.015 141.826Z" fill="#7F4339"/>
<path fill-rule="evenodd" clip-rule="evenodd" d="M30.9437 293.797C28.6662 295.985 24.4149 313.758 26.0828 311.511C26.3639 311.133 22.1607 298.335 22.1607 298.335L30.9437 293.797Z" fill="#D3D3D3"/>
<path fill-rule="evenodd" clip-rule="evenodd" d="M39.3403 286.672C28.2711 287.392 24.3947 298.203 23.592 297.838C23.1634 297.643 29.9237 284.253 29.9237 284.253L39.3403 286.672Z" fill="#D3D3D3"/>
<path fill-rule="evenodd" clip-rule="evenodd" d="M38.8633 315.727C38.8633 315.727 32.6854 310.693 31.9989 307.948C31.9989 307.948 30.0435 310.518 31.4566 314.559C32.8696 318.6 38.8633 315.727 38.8633 315.727Z" fill="#D3D3D3"/>
<path fill-rule="evenodd" clip-rule="evenodd" d="M39.3403 308.455C39.3403 308.455 34.5715 307.327 34.9032 301.967C34.9032 301.967 39.0263 307.654 45.1714 307.948L39.3403 308.455Z" fill="#47291F"/>
<path fill-rule="evenodd" clip-rule="evenodd" d="M35.3009 291.906C35.3009 291.906 39.9183 290.265 42.549 294.946C42.549 294.946 35.9995 292.409 30.6787 295.497L35.3009 291.906Z" fill="#47291F"/>
<path fill-rule="evenodd" clip-rule="evenodd" d="M128.203 318.522H125.225L123.983 312.133H126.961L128.203 318.522Z" fill="#47291F"/>
<path fill-rule="evenodd" clip-rule="evenodd" d="M132.125 318.522H129.147L127.905 312.133H130.883L132.125 318.522Z" fill="#47291F"/>
<path fill-rule="evenodd" clip-rule="evenodd" d="M135.703 318.522H132.725L131.483 312.133H134.461L135.703 318.522Z" fill="#47291F"/>
<path fill-rule="evenodd" clip-rule="evenodd" d="M103.844 318.522H100.866L99.6237 312.133H102.602L103.844 318.522Z" fill="#47291F"/>
<path fill-rule="evenodd" clip-rule="evenodd" d="M107.766 318.522H104.788L103.546 312.133H106.524L107.766 318.522Z" fill="#47291F"/>
<path fill-rule="evenodd" clip-rule="evenodd" d="M111.344 318.522H108.366L107.124 312.133H110.102L111.344 318.522Z" fill="#47291F"/>
<path fill-rule="evenodd" clip-rule="evenodd" d="M146.122 318.522H143.144L141.902 312.133H144.88L146.122 318.522Z" fill="#774236"/>
<path fill-rule="evenodd" clip-rule="evenodd" d="M150.044 318.522H147.066L145.824 312.133H148.802L150.044 318.522Z" fill="#774236"/>
<path fill-rule="evenodd" clip-rule="evenodd" d="M153.622 318.522H150.644L149.402 312.133H152.38L153.622 318.522Z" fill="#774236"/>
<path fill-rule="evenodd" clip-rule="evenodd" d="M124.536 169.992H118.091C117.769 169.992 117.506 169.728 117.506 169.406C117.506 169.084 117.769 168.821 118.091 168.821H124.536C124.858 168.821 125.121 169.084 125.121 169.406C125.121 169.728 124.858 169.992 124.536 169.992Z" fill="#774236"/>
<path fill-rule="evenodd" clip-rule="evenodd" d="M93.5558 152.97C93.5558 152.97 86.2372 154.572 90.0551 163.919L93.5558 152.97Z" fill="#D3D3D3"/>
<path fill-rule="evenodd" clip-rule="evenodd" d="M146.527 152.97C146.527 152.97 152.577 155.16 150.028 163.919L146.527 152.97Z" fill="#D3D3D3"/>
<path fill-rule="evenodd" clip-rule="evenodd" d="M112.02 150.192H103.579C102.717 150.192 102.012 149.487 102.012 148.626C102.012 147.763 102.717 147.058 103.579 147.058H112.02C112.882 147.058 113.587 147.763 113.587 148.626C113.587 149.487 112.882 150.192 112.02 150.192Z" fill="#47291F"/>
<path fill-rule="evenodd" clip-rule="evenodd" d="M138.476 150.192H130.035C129.173 150.192 128.468 149.487 128.468 148.626C128.468 147.763 129.173 147.058 130.035 147.058H138.476C139.338 147.058 140.043 147.763 140.043 148.626C140.043 149.487 139.338 150.192 138.476 150.192Z" fill="#47291F"/>
<path fill-rule="evenodd" clip-rule="evenodd" d="M116.034 234.309C116.034 234.309 121.649 241.179 121.026 250.011L102.757 234.309H116.034Z" fill="#F6F7FA"/>
<path fill-rule="evenodd" clip-rule="evenodd" d="M113.465 187.204C113.465 187.204 113.243 199.219 121.692 198.725C130.141 198.231 129.929 185.328 129.929 185.328L113.465 187.204Z" fill="#D3D3D3"/>
<path fill-rule="evenodd" clip-rule="evenodd" d="M103.194 173.663C103.194 173.663 111.644 184.216 121.169 177.348C121.169 177.348 128.107 182.988 138.859 172.393C138.859 172.393 137.002 187.535 121.4 188.424C105.797 189.314 103.194 173.663 103.194 173.663Z" fill="#47291F"/>
<path fill-rule="evenodd" clip-rule="evenodd" d="M115.096 179.65C115.096 179.65 111.674 195.829 121.665 195.884C131.135 195.934 128.185 178.678 128.185 178.678C128.185 178.678 124.31 179.581 121.17 177.348C121.17 177.348 117.611 179.732 115.096 179.65Z" fill="#D33743"/>
<path fill-rule="evenodd" clip-rule="evenodd" d="M115.096 179.65C115.096 179.65 118.068 179.404 121.17 177.348C121.17 177.348 123.6 179.318 128.185 178.678L128.468 180.427C128.468 180.427 122.255 181.489 121.106 178.685C121.106 178.685 119.931 180.968 114.812 181.562L115.096 179.65Z" fill="#BC2F40"/>
<path fill-rule="evenodd" clip-rule="evenodd" d="M121.313 192.034C120.812 192.034 120.402 191.624 120.402 191.121V182.152C120.402 181.651 120.812 181.24 121.313 181.24C121.815 181.24 122.225 181.651 122.225 182.152V191.121C122.225 191.624 121.815 192.034 121.313 192.034Z" fill="#E54256"/>
<path fill-rule="evenodd" clip-rule="evenodd" d="M168.81 89.5486C168.495 103.673 146.694 103.358 147.009 89.2338L147.637 63.7577L169.197 62.1926L168.81 89.5486Z" fill="#EF9C81"/>
<path fill-rule="evenodd" clip-rule="evenodd" d="M157.622 83.066C127.345 82.7696 134.233 31.1663 134.233 31.1663C134.082 20.2609 144.112 11.5206 156.636 11.6431C169.16 11.7657 179.435 20.7054 179.585 31.6108C179.585 31.6108 188.863 83.3719 157.622 83.066Z" fill="#FFA786"/>
<path fill-rule="evenodd" clip-rule="evenodd" d="M162.356 44.0585C161.574 43.8511 161.219 42.6079 161.567 41.2967C162.029 39.9927 162.648 39.5434 163.623 39.2911C168.184 39.0948 178.642 42.8626 177.432 45.5115C175.065 43.6212 166.283 42.1201 162.356 44.0585Z" fill="#774236"/>
<path fill-rule="evenodd" clip-rule="evenodd" d="M151.1 44.0585C151.882 43.8511 152.237 42.6079 151.889 41.2967C151.427 39.9927 150.808 39.5434 149.833 39.2911C145.272 39.0948 134.814 42.8626 136.024 45.5115C138.391 43.6212 147.173 42.1201 151.1 44.0585Z" fill="#774236"/>
<path fill-rule="evenodd" clip-rule="evenodd" d="M165.376 49.0961C165.248 51.4742 166.367 53.4678 167.875 53.5487C169.383 53.6296 170.709 51.7673 170.837 49.3892C170.861 48.9567 170.842 48.5378 170.789 48.1405C170.545 46.3495 166.008 46.0868 165.568 47.8201C165.466 48.2214 165.4 48.6499 165.376 49.0961Z" fill="#47291F"/>
<path fill-rule="evenodd" clip-rule="evenodd" d="M173.594 49.0132C173.594 49.0132 168.291 42.1103 163.174 48.5599C163.174 48.5599 163.085 48.982 163.332 48.8818C164.658 48.3444 169.396 46.3596 173.127 49.0965C173.401 49.2968 173.733 49.2183 173.594 49.0132Z" fill="#47291F"/>
<path fill-rule="evenodd" clip-rule="evenodd" d="M169.294 49.2752C169.279 49.5467 169.487 49.7782 169.758 49.7926C170.03 49.807 170.261 49.5996 170.276 49.328C170.291 49.0565 170.083 48.825 169.811 48.8106C169.539 48.7954 169.308 49.0036 169.294 49.2752Z" fill="white"/>
<path fill-rule="evenodd" clip-rule="evenodd" d="M148.245 49.0961C148.372 51.4742 147.253 53.4678 145.745 53.5487C144.237 53.6296 142.911 51.7673 142.783 49.3892C142.76 48.9567 142.778 48.5378 142.832 48.1405C143.075 46.3495 147.612 46.0868 148.052 47.8201C148.154 48.2214 148.221 48.6499 148.245 49.0961Z" fill="#47291F"/>
<path fill-rule="evenodd" clip-rule="evenodd" d="M140.347 49.0613C140.347 49.0613 145.584 42.1088 150.762 48.5094C150.762 48.5094 150.855 48.9307 150.606 48.833C149.275 48.3076 144.519 46.3684 140.814 49.1398C140.542 49.3432 140.21 49.2679 140.347 49.0613Z" fill="#47291F"/>
<path fill-rule="evenodd" clip-rule="evenodd" d="M147.844 49.2752C147.858 49.5467 147.65 49.7782 147.379 49.7926C147.108 49.807 146.875 49.5996 146.861 49.328C146.846 49.0565 147.055 48.825 147.326 48.8106C147.597 48.7954 147.829 49.0036 147.844 49.2752Z" fill="white"/>
<path fill-rule="evenodd" clip-rule="evenodd" d="M160.554 60.2559C159.65 63.3156 154.544 63.1114 153.878 60.4777C153.252 61.66 154.458 63.1418 157.216 63.3156C159.974 63.1418 161.18 61.4381 160.554 60.2559Z" fill="#D38462"/>
<path fill-rule="evenodd" clip-rule="evenodd" d="M125.369 23.5264C125.369 23.5264 125.498 40.9726 132.871 51.7033L133.643 53.7162L134.754 26.7167C143.403 31.4537 157.471 37.1118 169.016 37.1935C170.327 37.2024 161.924 29.0099 163.158 28.8657C165.548 28.587 177.452 36.133 179.427 35.1751L178.966 53.1387L181.432 48.9696C187.02 36.7081 184.064 22.2344 184.064 22.2344C181.805 10.8652 166.212 -4.90532 144.993 3.76933C141.135 5.34566 138.895 9.95692 138.895 9.95692C138.135 10.2076 128.165 4.14098 125.369 23.5264Z" fill="#774236"/>
<path fill-rule="evenodd" clip-rule="evenodd" d="M157.022 55.7L153.878 60.4778C153.878 60.4778 154.239 62.4739 157.022 62.4963C159.665 62.5171 160.554 60.646 160.555 60.2559L157.022 55.7Z" fill="#D38462"/>
<path fill-rule="evenodd" clip-rule="evenodd" d="M139.887 10.3838C139.887 10.3838 136.961 1.42798 127.202 5.65557C127.202 5.65557 133.58 11.1447 133.735 14.2381L139.887 10.3838Z" fill="#774236"/>
<path fill-rule="evenodd" clip-rule="evenodd" d="M142.257 9.44414C142.257 9.44414 143.194 0.0694414 132.559 -0.000244141C132.559 -0.000244141 136.178 7.59467 135.073 10.4878L142.257 9.44414Z" fill="#774236"/>
<path fill-rule="evenodd" clip-rule="evenodd" d="M148.855 67.2397H166.905C166.905 67.2397 165.397 73.7341 157.592 73.7341C149.786 73.7341 148.855 67.2397 148.855 67.2397Z" fill="white"/>
<path fill-rule="evenodd" clip-rule="evenodd" d="M135.35 61.042C135.35 61.042 141.502 82.8447 157.88 82.3601C174.257 81.8756 179.77 61.0436 179.77 61.0436C179.77 61.0436 178.017 83.4807 157.622 83.0658C137.228 82.6509 135.35 61.042 135.35 61.042Z" fill="#EF9C81"/>
<path fill-rule="evenodd" clip-rule="evenodd" d="M137.131 22.2339C137.131 22.2339 152.123 33.736 164.144 34.899C164.144 34.899 162.799 33.3483 161.112 31.297C156.386 25.5524 149.329 22.2339 141.89 22.2339H137.131Z" fill="#874635"/>
<path fill-rule="evenodd" clip-rule="evenodd" d="M163.158 23.623C163.158 23.623 175.405 24.2855 179.77 32.7607C179.77 32.7607 170.671 32.7342 163.158 23.623Z" fill="#874635"/>
<path fill-rule="evenodd" clip-rule="evenodd" d="M212.887 149.741L233.751 137.632L235.282 140.677L214.611 152.423L212.887 149.741Z" fill="#E08C75"/>
<path fill-rule="evenodd" clip-rule="evenodd" d="M298 321.923C298 323.905 296.393 325.512 294.411 325.512H3.58882C1.60696 325.512 0 323.905 0 321.923V321.892C0 319.91 1.60696 318.303 3.58882 318.303H294.411C296.393 318.303 298 319.91 298 321.892V321.923Z" fill="#DEDFE2"/>
</g>
</svg>
