<svg width="209" height="410" viewBox="0 0 209 410" fill="none" xmlns="http://www.w3.org/2000/svg">
<path fill-rule="evenodd" clip-rule="evenodd" d="M71.7605 238.851C66.2864 243.317 62.2898 241.327 57.0063 238.11L59.0259 219.082L69.146 216.249C71.5074 223.523 73.0385 227.093 73.0441 231.194C73.0473 233.426 71.7861 235.825 71.7605 238.851Z" fill="#F79673"/>
<path fill-rule="evenodd" clip-rule="evenodd" d="M68.1885 227.534C67.4037 228.251 67.3469 229.48 68.0636 230.264L75.1744 238.057C75.8902 238.841 77.1186 238.898 77.9042 238.182C78.6889 237.465 78.745 236.237 78.0291 235.452L71.1545 225.659C70.4378 224.873 68.9732 226.818 68.1885 227.534Z" fill="#F79673"/>
<path fill-rule="evenodd" clip-rule="evenodd" d="M69.9911 237.417C68.9501 237.385 68.0717 238.21 68.0397 239.251L67.6857 250.674C67.6537 251.715 68.4785 252.593 69.5195 252.625C70.5605 252.658 71.4389 251.832 71.4709 250.791L71.8249 239.369C71.8577 238.328 71.0321 237.449 69.9911 237.417Z" fill="#F79673"/>
<path fill-rule="evenodd" clip-rule="evenodd" d="M66.0494 239.526C65.0084 239.494 64.1299 240.318 64.0979 241.359L63.7439 252.782C63.7119 253.824 64.5367 254.701 65.5777 254.733C66.6187 254.766 67.4971 253.94 67.5292 252.899L67.8831 241.477C67.9159 240.436 67.0903 239.558 66.0494 239.526Z" fill="#F79673"/>
<path fill-rule="evenodd" clip-rule="evenodd" d="M62.0747 236.39C61.0337 236.355 60.1537 237.178 60.1193 238.219L59.7397 249.641C59.7053 250.682 60.5284 251.562 61.5694 251.597C62.6104 251.631 63.4897 250.808 63.5249 249.767L63.9045 238.345C63.9389 237.304 63.1157 236.424 62.0747 236.39Z" fill="#F79673"/>
<path fill-rule="evenodd" clip-rule="evenodd" d="M59.0557 233.469C58.0147 233.434 57.1346 234.258 57.1002 235.299L56.7206 246.72C56.6862 247.761 57.5094 248.641 58.5504 248.676C59.5914 248.71 60.4706 247.887 60.5059 246.846L60.8854 235.424C60.9199 234.383 60.0967 233.503 59.0557 233.469Z" fill="#F79673"/>
<path fill-rule="evenodd" clip-rule="evenodd" d="M70.0005 97.5783C70.0005 97.5783 49.1229 91.9985 57.6799 222.973L66.5452 223.563L75.348 115.1L70.0005 97.5783Z" fill="#D7DADD"/>
<mask id="mask0" mask-type="alpha" maskUnits="userSpaceOnUse" x="0" y="0" width="209" height="410">
<path fill-rule="evenodd" clip-rule="evenodd" d="M0 409.362H209V0H0V409.362Z" fill="white"/>
</mask>
<g mask="url(#mask0)">
<path fill-rule="evenodd" clip-rule="evenodd" d="M81.3474 275.402H137.635V168.492H81.3474V275.402Z" fill="#B6C7D3"/>
<path fill-rule="evenodd" clip-rule="evenodd" d="M88.0926 385.348H66.6753C66.6409 346.948 74.3274 264.666 80.3243 222.833L105.81 227.362C100.549 271.213 90.0857 351.027 88.0926 385.348Z" fill="#424259"/>
<path fill-rule="evenodd" clip-rule="evenodd" d="M162.852 386.257L140.121 386.56C140.121 386.56 112.85 228.014 115.235 228.011L143.779 223.787C143.637 229.282 162.852 386.257 162.852 386.257Z" fill="#424259"/>
<path fill-rule="evenodd" clip-rule="evenodd" d="M141.204 217.456C140.847 232.531 126.702 244.751 109.61 244.751C92.5196 244.751 78.9538 232.531 79.311 217.456C79.6681 202.381 93.8128 190.161 110.904 190.161C127.996 190.161 141.561 202.381 141.204 217.456Z" fill="#424259"/>
<path fill-rule="evenodd" clip-rule="evenodd" d="M136.14 400.818H166.335L166.318 395.018C166.303 389.838 162.683 385.639 158.234 385.639H144.151C139.701 385.639 136.107 389.838 136.123 395.018L136.14 400.818Z" fill="#9B5521"/>
<path fill-rule="evenodd" clip-rule="evenodd" d="M88.0699 401.154L78.2389 401.219L74.7572 400.098L67.0955 401.564L38.3936 401.357C37.5248 392.175 42.6657 384.73 49.8758 384.73L88.5192 384.823L88.0699 401.154Z" fill="#9B5521"/>
<path fill-rule="evenodd" clip-rule="evenodd" d="M61.4981 401.153L38.3888 401.357C37.5624 392.174 42.4527 384.73 49.312 384.73H51.5085C57.0258 384.73 61.4981 391.024 61.4981 398.788V401.153Z" fill="#BC6E2E"/>
<path fill-rule="evenodd" clip-rule="evenodd" d="M37.9496 403.676H69.5638L69.5999 400.657H37.9856L37.9496 403.676Z" fill="#242D22"/>
<path fill-rule="evenodd" clip-rule="evenodd" d="M136.15 403.851H166.345L166.325 400.486H136.129L136.15 403.851Z" fill="#242D22"/>
<path fill-rule="evenodd" clip-rule="evenodd" d="M136.14 400.818H166.335L166.12 396.669C165.928 392.964 162.165 389.96 157.716 389.96H143.633C139.184 389.96 135.733 392.964 135.924 396.669L136.14 400.818Z" fill="#BC6E2E"/>
<path fill-rule="evenodd" clip-rule="evenodd" d="M77.7384 403.483H88.2396V399.491L73.4438 399.542C75.075 400.677 78.4462 401.819 77.7384 403.483Z" fill="#242D22"/>
<path fill-rule="evenodd" clip-rule="evenodd" d="M76.7415 402.74C76.434 401.884 75.24 401.841 73.2926 401.816C71.3779 401.79 69.6499 401.74 69.6234 402.749C69.5954 403.801 66.2338 403.804 66.261 402.749C66.3083 400.951 69.3023 399.734 72.8649 399.593C76.5317 399.448 79.3856 400.706 80.0046 402.433C80.3737 403.462 77.1939 403.862 76.8576 403.026L76.7415 402.74Z" fill="#242D22"/>
<path fill-rule="evenodd" clip-rule="evenodd" d="M92.7985 384.887H63.3864L64.2864 371.819H93.6986L92.7985 384.887Z" fill="#515168"/>
<path fill-rule="evenodd" clip-rule="evenodd" d="M163.81 385.577H137.333L135.69 373.82H162.168L163.81 385.577Z" fill="#515168"/>
<path fill-rule="evenodd" clip-rule="evenodd" d="M73.9298 200.352L147.121 199.315L152.015 97.2549H71.0375L73.9298 200.352Z" fill="#58A0D6"/>
<path fill-rule="evenodd" clip-rule="evenodd" d="M121.678 75.7195C119.133 74.0362 112.28 72.5508 111.406 72.9336C110.532 72.5508 103.68 74.0362 101.134 75.7195C85.6397 85.9615 69.6733 90.9263 69.6556 106.51C77.0211 101.32 70.1289 113.536 70.1633 119.249H111.406H152.649C160.791 119.249 160.358 107.684 160.358 107.684C160.341 92.1011 137.173 85.9615 121.678 75.7195Z" fill="#58A0D6"/>
<path fill-rule="evenodd" clip-rule="evenodd" d="M140.839 85.6961C148.335 89.8994 157.547 96.0623 158.959 101.6L155.435 117.562L153.357 178.105L154.379 274.932L122.71 277.907L115.412 145.293C115.756 132.162 135.402 82.6476 140.839 85.6961Z" fill="#F0F1F2"/>
<path fill-rule="evenodd" clip-rule="evenodd" d="M78.8717 89.452C71.0674 93.5232 65.0553 99.2159 63.2447 104.59L68.1638 120.981L62.5457 273.338L88.4825 276.237L91.4125 124.046C91.9634 114.022 84.5035 86.5139 78.8717 89.452Z" fill="#F0F1F2"/>
<path fill-rule="evenodd" clip-rule="evenodd" d="M106.808 89.3254L98.3727 96.4852L102.497 103.462L105.495 103.278L106.808 89.3254Z" fill="#32539E"/>
<path fill-rule="evenodd" clip-rule="evenodd" d="M106.808 89.3254L107.714 89.4784L115.056 96.6686L111.119 103.462L103.871 103.339L106.808 89.3254Z" fill="#32539E"/>
<path fill-rule="evenodd" clip-rule="evenodd" d="M102.497 103.462C102.497 103.462 95.1855 157.925 96.1857 169.675L102.412 179.489L111.182 168.941L111.119 103.462C107.954 101.875 105.003 101.457 102.497 103.462Z" fill="#32539E"/>
<path fill-rule="evenodd" clip-rule="evenodd" d="M130.178 78.4941C130.178 78.4941 122.955 96.7736 117.031 115.276C115.572 119.83 115.942 142.003 116.181 145.564L132.677 115.089L127.928 105.787L148.674 89.6314C148.674 89.6314 137.676 80.6971 130.178 78.4941Z" fill="#F0F1F2"/>
<path fill-rule="evenodd" clip-rule="evenodd" d="M90.8741 80.1462C90.8741 80.1462 93.712 96.6079 93.9146 115.088C93.9634 119.573 92.0104 141.349 90.9582 144.829L81.6148 115.751L88.491 106.658L71.4419 90.8631C71.4419 90.8631 82.872 82.3003 90.8741 80.1462Z" fill="#F0F1F2"/>
<path fill-rule="evenodd" clip-rule="evenodd" d="M102.161 74.8372L91.9989 78.1268C91.3119 84.9847 90.4991 91.712 92.3737 100.891L106.808 89.3257C106.808 89.3257 100.536 88.2999 102.161 74.8372Z" fill="#83D0FF"/>
<path fill-rule="evenodd" clip-rule="evenodd" d="M121.027 73.3975L130.552 77.8818C128.772 85.5597 125.178 92.0797 121.429 103.829L107.745 89.5092C107.745 89.5092 124.277 87.8396 121.027 73.3975Z" fill="#83D0FF"/>
<path fill-rule="evenodd" clip-rule="evenodd" d="M97.4351 97.2198L97.1541 101.442L106.433 93.5482L115.618 102.452L116.743 98.505L107.745 89.5091L106.808 89.3257L97.4351 97.2198Z" fill="#2C3C5B"/>
<path fill-rule="evenodd" clip-rule="evenodd" d="M116.181 145.564L132.802 115.823L128.428 105.665L148.673 89.6316L150.798 91.8345L131.802 105.909L135.926 115.7L116.181 145.564Z" fill="#B6C7D3"/>
<path fill-rule="evenodd" clip-rule="evenodd" d="M71.4417 90.8635L68.9497 93.6703L85.3174 107.501L79.2924 115.089L91.034 146.176L81.6146 115.751L88.4916 106.657L71.4417 90.8635Z" fill="#B6C7D3"/>
<path fill-rule="evenodd" clip-rule="evenodd" d="M83.0189 120.116C84.8254 110.541 86.0098 100.816 88.2968 91.3381C89.8719 84.811 92.5496 77.1235 100.215 76.3002C101.718 76.1385 101.734 73.7666 100.215 73.9299C93.4209 74.6594 89.8254 79.4113 87.56 85.4812C83.561 96.1981 82.8419 108.311 80.7335 119.486C80.4516 120.979 82.7354 121.616 83.0189 120.116Z" fill="#242D22"/>
<path fill-rule="evenodd" clip-rule="evenodd" d="M74.9228 122.174C73.3173 125.367 74.6577 129.23 77.9177 130.803C81.1776 132.376 85.1222 131.062 86.7277 127.87C88.334 124.677 86.9927 120.814 83.7328 119.241C80.4729 117.668 76.5283 118.982 74.9228 122.174Z" fill="#65ABEA"/>
<path fill-rule="evenodd" clip-rule="evenodd" d="M76.5418 121.5C75.3046 123.959 76.3376 126.934 78.8488 128.146C81.36 129.358 84.3981 128.345 85.6353 125.886C86.8716 123.427 85.8387 120.451 83.3283 119.24C80.8171 118.029 77.7789 119.04 76.5418 121.5Z" fill="#FBFBFF"/>
<path fill-rule="evenodd" clip-rule="evenodd" d="M77.0119 119.576C75.7747 122.036 76.8077 125.011 79.3189 126.223C81.8301 127.434 84.8682 126.422 86.1054 123.963C87.3417 121.504 86.3088 118.528 83.7983 117.317C81.2871 116.106 78.249 117.117 77.0119 119.576Z" fill="#242D22"/>
<path fill-rule="evenodd" clip-rule="evenodd" d="M121.404 74.4583C124.79 76.0783 127.77 78.1684 128.142 82.2355C128.412 85.1888 127.469 88.1381 127.737 91.1418C128.284 97.2758 131.615 102.791 133.348 108.608C133.862 110.334 136.563 109.598 136.046 107.865C133.863 100.534 129.662 93.9221 130.631 85.9928C131.458 79.2206 128.967 74.9852 122.817 72.0424C121.197 71.2672 119.777 73.68 121.404 74.4583Z" fill="#242D22"/>
<path fill-rule="evenodd" clip-rule="evenodd" d="M127.627 85.2509C125.821 92.7887 118.109 99.0812 120.87 107.614C121.423 109.323 124.126 108.592 123.568 106.87C121.077 99.1717 128.676 92.8784 130.326 85.9949C130.746 84.2411 128.048 83.4964 127.627 85.2509Z" fill="#242D22"/>
<path fill-rule="evenodd" clip-rule="evenodd" d="M132.061 111.966L128.174 133.005C127.162 137.527 126.242 140.041 120.449 139.137C120.364 139.93 120.287 140.723 120.247 141.518L121.142 141.677C125.372 142.427 129.459 139.704 130.224 135.561L134.882 110.35C135.648 106.206 132.812 107.902 132.061 111.966Z" fill="#65ABEA"/>
<path fill-rule="evenodd" clip-rule="evenodd" d="M117.716 138.654L120.785 138.858C121.649 138.914 122.308 139.653 122.25 140.499L122.219 140.935C122.161 141.781 121.406 142.427 120.542 142.369L117.474 142.166C116.611 142.109 115.951 141.37 116.01 140.524L116.04 140.088C116.098 139.243 116.852 138.597 117.716 138.654Z" fill="#242D22"/>
<path fill-rule="evenodd" clip-rule="evenodd" d="M124.704 111.055L130.25 131.735C131.616 136.167 132.733 138.603 138.437 137.261C138.586 138.045 138.725 138.829 138.827 139.619L137.948 139.846C133.791 140.915 129.5 138.512 128.408 134.44L121.763 109.659C120.671 105.587 123.634 107.061 124.704 111.055Z" fill="#65ABEA"/>
<path fill-rule="evenodd" clip-rule="evenodd" d="M141.123 136.571L138.08 137.007C137.223 137.13 136.625 137.916 136.75 138.756L136.815 139.188C136.94 140.026 137.744 140.613 138.6 140.49L141.644 140.054C142.5 139.931 143.099 139.145 142.973 138.306L142.909 137.873C142.783 137.035 141.98 136.449 141.123 136.571Z" fill="#242D22"/>
<path fill-rule="evenodd" clip-rule="evenodd" d="M133.372 110.271L134.95 110.308C135.768 110.327 136.448 109.693 136.468 108.891L136.488 108.066C136.508 107.263 135.859 106.598 135.041 106.579L133.463 106.541C132.644 106.523 131.964 107.157 131.945 107.959L131.925 108.784C131.905 109.587 132.552 110.252 133.372 110.271Z" fill="#242D22"/>
<path fill-rule="evenodd" clip-rule="evenodd" d="M122.38 110.131L123.933 109.855C124.739 109.711 125.273 108.955 125.127 108.165L124.976 107.353C124.83 106.564 124.057 106.041 123.252 106.184L121.699 106.46C120.892 106.604 120.358 107.36 120.505 108.15L120.655 108.962C120.802 109.752 121.575 110.274 122.38 110.131Z" fill="#242D22"/>
<path fill-rule="evenodd" clip-rule="evenodd" d="M146.125 163.064H121.896C120.937 163.064 120.151 162.279 120.151 161.318V148.211C120.151 147.252 120.937 146.466 121.896 146.466H146.125C147.085 146.466 147.87 147.252 147.87 148.211V161.318C147.87 162.279 147.085 163.064 146.125 163.064Z" fill="#65ABEA"/>
<path fill-rule="evenodd" clip-rule="evenodd" d="M132.142 156.815H122.632C122.236 156.815 121.912 156.491 121.912 156.095V149.211C121.912 148.815 122.236 148.491 122.632 148.491H132.142C132.538 148.491 132.862 148.815 132.862 149.211V156.095C132.862 156.491 132.538 156.815 132.142 156.815Z" fill="#F3F8FC"/>
<path fill-rule="evenodd" clip-rule="evenodd" d="M143.612 151.416H136.508C135.724 151.416 135.082 150.774 135.082 149.991C135.082 149.207 135.724 148.566 136.508 148.566H143.612C144.396 148.566 145.037 149.207 145.037 149.991C145.037 150.774 144.396 151.416 143.612 151.416Z" fill="#F3F8FC"/>
<path fill-rule="evenodd" clip-rule="evenodd" d="M143.612 156.365H136.508C135.724 156.365 135.082 155.724 135.082 154.941C135.082 154.157 135.724 153.515 136.508 153.515H143.612C144.396 153.515 145.037 154.157 145.037 154.941C145.037 155.724 144.396 156.365 143.612 156.365Z" fill="#F3F8FC"/>
<path fill-rule="evenodd" clip-rule="evenodd" d="M133.491 147.766H133.458C132.568 147.766 131.841 147.039 131.841 146.149V143.283C131.841 142.394 132.568 141.667 133.458 141.667H133.491C134.38 141.667 135.108 142.394 135.108 143.283V146.149C135.108 147.039 134.38 147.766 133.491 147.766Z" fill="#32539E"/>
<path fill-rule="evenodd" clip-rule="evenodd" d="M173.149 249.502L184.862 211.263C185.292 209.861 184.48 208.384 183.048 207.963L118.969 189.138C117.537 188.717 116.029 189.513 115.599 190.915L103.886 229.153C103.456 230.555 104.268 232.032 105.7 232.453L169.779 251.278C171.211 251.699 172.72 250.904 173.149 249.502Z" fill="#32539E"/>
<path fill-rule="evenodd" clip-rule="evenodd" d="M169.074 247.349L180.496 210.062L120.872 192.544L109.451 229.832L169.074 247.349Z" fill="white"/>
<path fill-rule="evenodd" clip-rule="evenodd" d="M115.126 224.56L122.006 202.083C122.389 200.831 121.663 199.511 120.384 199.135L119.394 198.844C118.114 198.468 116.766 199.18 116.383 200.433L109.503 222.909C109.12 224.162 109.846 225.482 111.125 225.858L112.115 226.148C113.395 226.525 114.743 225.814 115.126 224.56Z" fill="#424259"/>
<path fill-rule="evenodd" clip-rule="evenodd" d="M136.507 229.537L132.209 236.717L129.648 238.988C128.607 239.913 129.083 241.899 130.427 242.239L146.778 247.711L155.646 239.036L162.947 219.935L147.698 214.797L134.678 219.693L126.818 228.65C126.818 228.65 120.003 232.115 126.164 233.896C128.035 234.437 130.503 232.674 132.189 231.46C134.356 229.9 136.507 229.537 136.507 229.537Z" fill="#FFAA82"/>
<path fill-rule="evenodd" clip-rule="evenodd" d="M158.449 100.371L139.994 117.378L151.942 146.686C156.229 168.066 154.811 199.112 147.044 215.125C147.044 215.125 164.473 221.952 164.822 220.924C189.767 147.506 158.449 100.371 158.449 100.371Z" fill="#F0F1F2"/>
<path fill-rule="evenodd" clip-rule="evenodd" d="M147.328 137.588C147.328 137.588 160.974 164.733 152.019 196.472L151.273 198.665L148.394 197.621C148.394 197.621 155.288 171.554 147.328 137.588Z" fill="#B6C7D3"/>
<path fill-rule="evenodd" clip-rule="evenodd" d="M122.158 79.9617C121.43 87.3633 100.797 96.8109 101.734 80.5542L103.809 56.7582L122.895 55.7468C121.272 66.0361 120.781 74.7614 122.158 79.9617Z" fill="#F49F7D"/>
<path fill-rule="evenodd" clip-rule="evenodd" d="M102.018 74.8462C110.995 72.821 121.641 73.7844 121.522 80.3188C121.522 80.3188 121.029 64.4505 121.918 60.1086C121.918 60.1086 111.109 76.3653 102.018 74.8462Z" fill="#EA8A6C"/>
<path fill-rule="evenodd" clip-rule="evenodd" d="M81.5693 55.3458C81.5693 55.3458 83.4431 56.6198 83.1444 50.7894C82.7432 42.9673 79.3552 25.7361 82.768 24.0192C83.7185 23.542 90.312 20.2259 86.2233 19.4924C79.3984 18.2688 73.8875 29.2796 74.2919 31.5402C75.2352 39.548 77.7528 47.4789 81.5693 55.3458Z" fill="#744628"/>
<path fill-rule="evenodd" clip-rule="evenodd" d="M105.676 76.2764C105.676 76.2764 94.6488 56.6821 94.266 49.9451L87.803 24.2072C87.4211 17.4703 90.259 10.2688 96.2687 8.89869L111.012 5.53861C117.021 4.16848 123.99 9.57055 124.372 16.3067L125.214 55.9982C125.596 62.7344 121.091 72.6153 105.676 76.2764Z" fill="#EA8A6C"/>
<path fill-rule="evenodd" clip-rule="evenodd" d="M105.483 76.3383L105.097 76.4616C96.4201 78.4395 86.3465 73.2104 84.3686 64.5324L75.1422 24.0537C74.6361 21.8339 76.0382 19.6037 78.258 19.0976L107.69 12.3887C109.91 11.8834 114.862 12.6834 115.368 14.9031L121.043 49.5569C123.767 61.507 117.433 73.6148 105.483 76.3383Z" fill="#FFAA82"/>
<path fill-rule="evenodd" clip-rule="evenodd" d="M85.1854 46.5981C85.5642 48.8844 87.032 50.5452 88.4629 50.3073C89.8939 50.0703 90.7467 48.0243 90.3672 45.7389C89.9884 43.4527 88.5206 41.7918 87.0896 42.0289C85.6587 42.2667 84.8067 44.3119 85.1854 46.5981Z" fill="#242D22"/>
<path fill-rule="evenodd" clip-rule="evenodd" d="M105.509 42.843C105.773 45.1452 107.155 46.8773 108.596 46.7123C110.037 46.5474 110.991 44.547 110.728 42.2456C110.464 39.9433 109.082 38.2104 107.641 38.3762C106.2 38.5412 105.246 40.5407 105.509 42.843Z" fill="#242D22"/>
<path fill-rule="evenodd" clip-rule="evenodd" d="M74.7347 30.7222C82.4285 19.4159 110.798 20.6556 116.322 24.2062C119.018 35.2802 116.455 47.0357 124.264 49.0849L130.269 46.8219L130.827 25.8366C130.951 21.1713 129.022 16.6861 125.549 13.5686L121.962 10.3487C121.962 10.3487 121.778 9.92429 121.679 9.65603C119.224 3.02716 109.994 0.398195 101.416 0.985968C65.1127 3.474 74.7347 30.7222 74.7347 30.7222Z" fill="#744628"/>
<path fill-rule="evenodd" clip-rule="evenodd" d="M80.3391 39.9747C83.4164 38.6942 86.2719 38.0888 89.5262 38.0776L89.0514 35.1371C85.6834 34.981 82.5179 35.636 79.5631 37.1351L80.3391 39.9747Z" fill="#744628"/>
<path fill-rule="evenodd" clip-rule="evenodd" d="M100.971 36.6005C104.341 35.3978 107.436 34.9029 110.925 35.0646L110.579 31.9007C106.976 31.554 103.547 32.0857 100.296 33.5279L100.971 36.6005Z" fill="#744628"/>
<path fill-rule="evenodd" clip-rule="evenodd" d="M92.6338 53.525C92.6338 53.525 94.2409 57.0244 97.07 56.3622C99.8991 55.6991 100.742 52.6313 100.742 52.6313C100.742 52.6313 98.2039 53.4441 96.443 53.6435C94.6821 53.8421 92.6338 53.525 92.6338 53.525Z" fill="#D38462"/>
<path fill-rule="evenodd" clip-rule="evenodd" d="M132.049 45.5166C130.986 50.1267 127.745 53.3146 124.81 52.6364C124.52 52.5699 124.245 52.4682 123.984 52.3337C121.601 51.1101 120.462 47.2167 121.42 43.0614C122.483 38.4513 125.725 35.2634 128.659 35.9409C131.595 36.6191 133.112 40.9065 132.049 45.5166Z" fill="#EA8A6C"/>
<path fill-rule="evenodd" clip-rule="evenodd" d="M123.845 43.8858C123.744 45.135 125.917 44.8676 126.25 45.7885C126.758 47.1923 125.675 49.4865 126.824 49.4312C128.727 49.3392 130.477 46.7078 130.735 43.5535C130.992 40.3984 129.658 37.916 127.756 38.0081C125.854 38.0994 124.102 40.7316 123.845 43.8858Z" fill="#E28061"/>
<path fill-rule="evenodd" clip-rule="evenodd" d="M122.576 48.5942L125.398 22.4975L112.374 11.0712L120.289 48.7055C120.56 49.9963 122.432 49.9051 122.576 48.5942Z" fill="#744628"/>
<path fill-rule="evenodd" clip-rule="evenodd" d="M106.68 58.8615L91.5848 61.3463C90.8881 61.4608 90.4837 62.1999 90.7672 62.8462C91.809 65.2269 94.6637 69.9948 100.553 69.025C106.431 68.0577 107.677 62.6324 107.934 60.033C108.005 59.3259 107.382 58.7462 106.68 58.8615Z" fill="white"/>
<path fill-rule="evenodd" clip-rule="evenodd" d="M93.4232 4.65867C97.4591 1.46115 110.126 -3.00321 118.369 6.15933C120.491 8.51763 121.659 12.3374 121.659 12.3374C121.659 12.3374 82.9804 29.149 67.8051 16.0105C67.8051 16.0105 84.5179 11.7143 93.4232 4.65867ZM73.0886 27.6899C73.9238 28.2144 74.7598 28.6084 75.5589 28.8687C77.6513 29.0737 79.7413 29.1762 81.8169 29.1938C96.3556 29.3147 110.15 25.2035 118.62 22.0172C123.838 20.0545 127.033 18.4449 127.136 18.3929C127.138 18.3921 127.143 18.3897 127.143 18.3897C127.143 18.3897 125.295 12.3486 121.939 8.61853C108.903 -5.87401 88.8677 1.18728 82.4847 6.24501C72.1661 14.4202 67.7082 14.9711 66.0594 14.682C65.8456 14.9695 65.6358 15.261 65.426 15.5525C66.5775 21.596 69.8326 25.6463 73.0886 27.6899Z" fill="#935838"/>
<path fill-rule="evenodd" clip-rule="evenodd" d="M121.659 12.3373C121.659 12.3373 120.49 8.51758 118.369 6.15928C110.127 -3.00326 97.4593 1.46109 93.4234 4.65861C84.5181 11.7143 67.8053 16.0105 67.8053 16.0105C82.9806 29.1489 121.659 12.3373 121.659 12.3373Z" fill="#A86548"/>
<path fill-rule="evenodd" clip-rule="evenodd" d="M209 405.774C209 407.755 207.657 409.361 206 409.361H2.96444C1.30765 409.361 0 407.755 0 405.774V405.743C0 403.761 1.30765 402.154 2.96444 402.154H206C207.657 402.154 209 403.761 209 405.743V405.774Z" fill="#DEDFE2"/>
</g>
</svg>
