<svg width="556" height="645" viewBox="0 0 556 645" fill="none" xmlns="http://www.w3.org/2000/svg">
<mask id="mask0" mask-type="alpha" maskUnits="userSpaceOnUse" x="0" y="0" width="628" height="645">
<path fill-rule="evenodd" clip-rule="evenodd" d="M0 0.287109H627.347V644.038H0V0.287109Z" fill="white"/>
</mask>
<g mask="url(#mask0)">
<path fill-rule="evenodd" clip-rule="evenodd" d="M168.44 93.6781C181.214 93.6781 193.032 99.9923 200.19 110.652C204.445 117.024 206.688 124.468 206.688 132.153C206.688 153.422 189.543 170.695 168.44 170.695C147.394 170.695 130.249 153.422 130.249 132.153C130.249 110.951 147.394 93.6781 168.44 93.6781ZM577.57 263.489C577.446 263.373 577.331 263.257 577.215 263.132C577.091 263.016 576.976 262.899 576.86 262.775C572.127 257.956 565.802 255.272 559.006 255.272C545.168 255.272 533.878 266.646 533.878 280.646C533.878 287.558 536.591 294.047 541.498 298.816C547.057 304.349 552.087 310.489 556.516 317.102C569.826 336.992 576.86 360.222 576.86 384.282C576.86 396.495 575.021 408.584 571.475 420.198L571.418 420.265C571.302 420.622 571.178 421.038 571.063 421.511L571.005 421.627C565.208 439.623 555.394 455.641 541.919 469.283C519.389 491.973 489.354 504.485 457.489 504.485C439.634 504.485 422.308 500.555 406.581 493.045C394.343 487.212 382.996 479.228 373.124 469.283C369.158 465.229 365.438 461 362.181 456.655C362.008 456.239 361.711 455.758 361.356 455.4C358.107 450.997 355.204 446.411 352.722 441.7C346.52 430.442 342.323 418.238 340.071 405.368C339.774 403.64 339.601 401.796 339.601 399.835C339.601 392.266 342.323 384.997 347.345 379.339L388.142 337.108C397.601 327.288 400.314 312.807 394.995 300.187C389.733 287.558 377.495 279.391 363.896 279.391H262.148C248.549 279.391 236.311 287.558 231.049 300.187C225.73 312.807 228.452 327.288 237.968 337.108L278.707 379.339C283.73 384.997 286.451 392.266 286.451 399.835C286.451 401.796 286.327 403.64 285.973 405.368C283.787 417.997 279.647 430.085 273.619 441.168C268.176 451.412 261.199 460.884 252.87 469.283C242.636 479.585 230.876 487.744 218.16 493.585C202.788 500.73 185.94 504.485 168.498 504.485C136.69 504.485 106.713 491.973 84.1911 469.283C70.6499 455.641 60.894 439.623 55.0471 421.511C54.9234 421.096 54.8079 420.68 54.6265 420.323V420.265C51.0227 408.65 49.2496 396.553 49.2496 384.282C49.2496 360.222 56.2841 336.992 69.5861 317.102C91.8771 283.919 128.831 264.087 168.498 264.087C203.497 264.087 236.368 250.387 261.142 225.429C285.857 200.53 299.456 167.413 299.456 132.153C299.456 96.9515 285.857 63.835 261.142 38.9437C236.368 13.9859 203.497 0.285645 168.498 0.285645C124.988 0.285645 84.3643 22.0282 60.0116 58.4181C45.3489 80.2188 37.6052 105.766 37.6052 132.153C37.6052 164.913 49.5465 196.301 71.3014 220.486C74.1383 223.701 75.7382 227.814 75.7382 232.101C75.7382 237.46 73.3136 242.403 69.116 245.743C63.0217 250.146 57.1747 255.09 51.6742 260.332L51.6164 260.399C18.3243 293.033 0 336.693 0 383.451C0 429.08 17.6151 472.083 49.5465 504.485C67.0461 522.173 87.6795 535.574 110.267 544.148C121.73 548.917 158.569 554.816 164.185 554.991C165.842 555.049 167.492 555.173 169.149 555.173H169.265C182.748 555.115 195.935 553.503 208.701 550.346C214.374 603.062 258.659 644.038 312.519 644.038C366.444 644.038 410.779 602.937 416.403 550.172C416.577 550.172 416.758 550.23 416.931 550.288C430.06 553.503 443.651 555.232 457.546 555.232C459.023 555.232 460.507 555.173 461.983 555.115C488.884 553.03 509.93 546.948 516.024 544.747C539.791 535.99 561.488 521.874 579.516 503.114C610.383 471.07 627.347 428.839 627.347 384.166C627.347 338.72 609.674 295.833 577.57 263.489Z" fill="#24003A"/>
<path fill-rule="evenodd" clip-rule="evenodd" d="M466.518 177.451C487.959 177.451 505.408 160.008 505.408 138.565C505.408 130.774 503.102 123.268 498.759 116.828C491.506 106.085 479.456 99.6865 466.518 99.6865C445.094 99.6865 427.653 117.138 427.653 138.565C427.653 160.008 445.094 177.451 466.518 177.451Z" fill="#24003A"/>
<path fill-rule="evenodd" clip-rule="evenodd" d="M116.628 410.745C102.341 410.745 90.7142 422.375 90.7142 436.658C90.7142 450.959 102.341 462.588 116.628 462.588C121.823 462.588 126.839 461.052 131.138 458.143C138.286 453.322 142.551 445.293 142.551 436.658C142.551 422.375 130.925 410.745 116.628 410.745Z" fill="#24003A"/>
<path fill-rule="evenodd" clip-rule="evenodd" d="M181.429 397.793C181.429 412.076 193.048 423.706 207.355 423.706C212.534 423.706 217.551 422.187 221.85 419.278C229.008 414.44 233.265 406.411 233.265 397.793C233.265 383.493 221.637 371.863 207.355 371.863C193.048 371.863 181.429 383.493 181.429 397.793Z" fill="#24003A"/>
<path fill-rule="evenodd" clip-rule="evenodd" d="M116.628 320.02C102.341 320.02 90.7142 331.649 90.7142 345.941C90.7142 360.233 102.341 371.863 116.628 371.863C121.823 371.863 126.839 370.327 131.138 367.434C138.286 362.596 142.551 354.567 142.551 345.941C142.551 331.649 130.925 320.02 116.628 320.02Z" fill="#24003A"/>
<path fill-rule="evenodd" clip-rule="evenodd" d="M413.156 419.278C417.455 422.179 422.471 423.706 427.657 423.706C441.945 423.706 453.571 412.078 453.571 397.797C453.571 383.499 441.945 371.863 427.657 371.863C413.37 371.863 401.735 383.499 401.735 397.797C401.735 406.414 406.017 414.441 413.156 419.278Z" fill="#24003A"/>
<path fill-rule="evenodd" clip-rule="evenodd" d="M492.449 345.941C492.449 354.559 496.715 362.605 503.873 367.434C508.155 370.327 513.172 371.863 518.359 371.863C532.657 371.863 544.286 360.233 544.286 345.941C544.286 331.649 532.657 320.02 518.359 320.02C504.086 320.02 492.449 331.649 492.449 345.941Z" fill="#24003A"/>
<path fill-rule="evenodd" clip-rule="evenodd" d="M518.363 410.745C504.088 410.745 492.449 422.375 492.449 436.658C492.449 445.293 496.715 453.322 503.874 458.143C508.158 461.052 513.175 462.588 518.363 462.588C532.664 462.588 544.286 450.959 544.286 436.658C544.286 422.375 532.664 410.745 518.363 410.745Z" fill="#24003A"/>
</g>
</svg>
