<svg width="175" height="51" viewBox="0 0 175 51" fill="none" xmlns="http://www.w3.org/2000/svg">
<mask id="mask0" mask-type="alpha" maskUnits="userSpaceOnUse" x="0" y="0" width="49" height="50">
<path fill-rule="evenodd" clip-rule="evenodd" d="M0 0.330811H48.4095V49.9999H0V0.330811Z" fill="white"/>
</mask>
<g mask="url(#mask0)">
<path fill-rule="evenodd" clip-rule="evenodd" d="M12.9977 7.53646C13.9835 7.53646 14.8954 8.02364 15.4477 8.84607C15.7761 9.33774 15.9492 9.9121 15.9492 10.505C15.9492 12.1461 14.6262 13.4788 12.9977 13.4788C11.3737 13.4788 10.0507 12.1461 10.0507 10.505C10.0507 8.86915 11.3737 7.53646 12.9977 7.53646ZM44.5684 20.6384C44.5588 20.6294 44.5499 20.6204 44.541 20.6108C44.5315 20.6018 44.5225 20.5929 44.5136 20.5833C44.1484 20.2115 43.6603 20.0044 43.1359 20.0044C42.0681 20.0044 41.1969 20.882 41.1969 21.9621C41.1969 22.4954 41.4063 22.9961 41.7849 23.364C42.2138 23.7909 42.602 24.2647 42.9437 24.7749C43.9708 26.3095 44.5136 28.1018 44.5136 29.9583C44.5136 30.9006 44.3717 31.8333 44.0981 32.7294L44.0936 32.7345C44.0847 32.7621 44.0752 32.7942 44.0663 32.8307L44.0618 32.8397C43.6145 34.2281 42.8572 35.464 41.8174 36.5166C40.0788 38.2672 37.7612 39.2326 35.3023 39.2326C33.9245 39.2326 32.5875 38.9294 31.374 38.3499C30.4296 37.8999 29.554 37.2839 28.7923 36.5166C28.4862 36.2038 28.1992 35.8775 27.9478 35.5422C27.9345 35.5102 27.9115 35.473 27.8842 35.4454C27.6335 35.1057 27.4095 34.7518 27.2179 34.3884C26.7394 33.5198 26.4155 32.5781 26.2417 31.5852C26.2188 31.4518 26.2055 31.3095 26.2055 31.1583C26.2055 30.5743 26.4155 30.0134 26.803 29.5768L29.9511 26.3185C30.681 25.5608 30.8904 24.4435 30.4799 23.4698C30.0739 22.4954 29.1295 21.8653 28.0802 21.8653H20.2287C19.1794 21.8653 18.235 22.4954 17.829 23.4698C17.4185 24.4435 17.6285 25.5608 18.3629 26.3185L21.5065 29.5768C21.8941 30.0134 22.1041 30.5743 22.1041 31.1583C22.1041 31.3095 22.0945 31.4518 22.0672 31.5852C21.8985 32.5595 21.5791 33.4922 21.1139 34.3474C20.6939 35.1377 20.1555 35.8685 19.5128 36.5166C18.7231 37.3115 17.8156 37.9409 16.8344 38.3916C15.6482 38.9429 14.3481 39.2326 13.0022 39.2326C10.5477 39.2326 8.23455 38.2672 6.49664 36.5166C5.45173 35.464 4.69891 34.2281 4.24773 32.8307C4.23818 32.7986 4.22927 32.7666 4.21527 32.739V32.7345C3.93718 31.8384 3.80036 30.905 3.80036 29.9583C3.80036 28.1018 4.34318 26.3095 5.36964 24.7749C7.08973 22.2147 9.94127 20.6845 13.0022 20.6845C15.7029 20.6845 18.2395 19.6275 20.1511 17.7018C22.0583 15.7807 23.1076 13.2256 23.1076 10.505C23.1076 7.78902 22.0583 5.23389 20.1511 3.31338C18.2395 1.38774 15.7029 0.330688 13.0022 0.330688C9.64473 0.330688 6.51 2.00825 4.63082 4.81594C3.49936 6.498 2.90182 8.46915 2.90182 10.505C2.90182 13.0326 3.82327 15.4544 5.502 17.3204C5.72091 17.5685 5.84436 17.8858 5.84436 18.2166C5.84436 18.63 5.65727 19.0115 5.33336 19.2691C4.86309 19.6089 4.41191 19.9903 3.98745 20.3948L3.983 20.3999C1.414 22.9179 0 26.2865 0 29.8941C0 33.4147 1.35927 36.7326 3.82327 39.2326C5.17364 40.5974 6.76582 41.6313 8.50882 42.2929C9.39336 42.6608 12.236 43.1159 12.6694 43.1294C12.7973 43.1339 12.9245 43.1435 13.0525 43.1435H13.0614C14.1018 43.139 15.1194 43.0147 16.1045 42.7711C16.5423 46.8384 19.9595 49.9999 24.1156 49.9999C28.2768 49.9999 31.6979 46.8288 32.1319 42.7576C32.1453 42.7576 32.1593 42.7621 32.1726 42.7666C33.1857 43.0147 34.2345 43.148 35.3067 43.148C35.4206 43.148 35.5352 43.1435 35.6491 43.139C37.7249 42.9781 39.3489 42.5089 39.8192 42.339C41.6532 41.6634 43.3275 40.5743 44.7185 39.1268C47.1005 36.6544 48.4095 33.3961 48.4095 29.9493C48.4095 26.4429 47.0457 23.1339 44.5684 20.6384Z" fill="#FF4100"/>
</g>
<path fill-rule="evenodd" clip-rule="evenodd" d="M35.999 14C37.6535 14 39 12.6542 39 10.9997C39 10.3986 38.8221 9.81948 38.4869 9.32255C37.9272 8.49369 36.9974 8 35.999 8C34.3458 8 33 9.34649 33 10.9997C33 12.6542 34.3458 14 35.999 14Z" fill="#FF4100"/>
<path fill-rule="evenodd" clip-rule="evenodd" d="M8.99967 32C7.89715 32 7 32.8973 7 33.9993C7 35.1027 7.89715 36 8.99967 36C9.40053 36 9.78756 35.8815 10.1193 35.657C10.6709 35.2851 11 34.6656 11 33.9993C11 32.8973 10.1028 32 8.99967 32Z" fill="#FF4100"/>
<path fill-rule="evenodd" clip-rule="evenodd" d="M14 31.0007C14 32.1027 14.8966 33 16.0007 33C16.4003 33 16.7874 32.8828 17.1192 32.6583C17.6715 32.2851 18 31.6656 18 31.0007C18 29.8973 17.1027 29 16.0007 29C14.8966 29 14 29.8973 14 31.0007Z" fill="#FF4100"/>
<path fill-rule="evenodd" clip-rule="evenodd" d="M8.99967 25C7.89715 25 7 25.8973 7 27C7 28.1027 7.89715 29 8.99967 29C9.40053 29 9.78756 28.8815 10.1193 28.6583C10.6709 28.2851 11 27.6656 11 27C11 25.8973 10.1028 25 8.99967 25Z" fill="#FF4100"/>
<path fill-rule="evenodd" clip-rule="evenodd" d="M31.8814 32.6584C32.2131 32.8822 32.6001 33 33.0003 33C34.1028 33 35 32.1028 35 31.001C35 29.8978 34.1028 29 33.0003 29C31.8978 29 31 29.8978 31 31.001C31 31.6658 31.3304 32.2852 31.8814 32.6584Z" fill="#FF4100"/>
<path fill-rule="evenodd" clip-rule="evenodd" d="M38 27C38 27.6649 38.3292 28.2857 38.8815 28.6583C39.212 28.8815 39.5991 29 39.9993 29C41.1027 29 42 28.1027 42 27C42 25.8973 41.1027 25 39.9993 25C38.898 25 38 25.8973 38 27Z" fill="#FF4100"/>
<path fill-rule="evenodd" clip-rule="evenodd" d="M39.9997 32C38.8981 32 38 32.8973 38 33.9993C38 34.6656 38.3292 35.2851 38.8816 35.657C39.2122 35.8815 39.5993 36 39.9997 36C41.1032 36 42 35.1027 42 33.9993C42 32.8973 41.1032 32 39.9997 32Z" fill="#FF4100"/>
<path fill-rule="evenodd" clip-rule="evenodd" d="M166.121 33.8003C163.232 33.8003 162.082 31.334 162.082 29.1C162.082 26.0991 163.093 23.7998 166.366 23.7998C168.732 23.7998 170.126 25.3667 170.126 28.9004C170.126 32.3676 168.385 33.8003 166.121 33.8003ZM172.702 20C171.205 20 170.404 20.7995 170.404 22.2999V22.9005H170.335C169.396 21.0994 167.445 20 164.973 20C160.69 20 157 22.9664 157 29.2663C157 34.067 159.785 37.4005 165.147 37.4005C167.165 37.4005 169.151 36.3337 170.057 35.0666H170.126V36.067C170.126 39.9 168.874 41.3998 165.774 41.3998C162.918 41.3998 162.501 38.9003 160.377 38.9003C159.263 38.9003 158.288 39.7663 158.288 40.9655C158.288 43.3339 162.082 45 165.948 45C171.241 45 175 42.3003 175 36.4341V22.2999C175 20.7995 174.269 20 172.702 20Z" fill="#4C4C4C"/>
<path fill-rule="evenodd" clip-rule="evenodd" d="M149.393 32.0093C149.393 33.8778 147.688 35.6773 144.902 35.6773C143.161 35.6773 142.084 34.7437 142.084 33.6003C142.084 32.079 143.231 31.421 145.356 31.1089L147.2 30.832C147.792 30.7278 148.836 30.5551 149.393 30.0365V32.0093ZM155 37.0618C155 36.2649 154.478 35.7815 154.478 33.6693V25.1912C154.478 21.5571 151.1 20 146.226 20C141.003 20 138.148 22.5611 138.148 24.5684C138.148 25.6056 139.019 26.506 140.306 26.506C142.325 26.506 142.43 23.7377 146.192 23.7377C147.897 23.7377 149.393 24.3606 149.393 25.8134C149.393 27.2683 148.419 27.5438 147.2 27.6819L144.102 28.0286C140.202 28.4781 137 29.656 137 33.8433C137 37.0272 139.854 39 142.744 39C145.425 39 147.722 38.2377 149.707 36.0571C149.777 37.6142 150.508 39 152.7 39C153.919 39 155 38.2032 155 37.0618Z" fill="#4C4C4C"/>
<path fill-rule="evenodd" clip-rule="evenodd" d="M125.886 34.7998H122.529V28.3329H125.211C127.909 28.3329 130.471 28.7 130.471 31.6006C130.471 34.3681 128.044 34.7998 125.886 34.7998ZM122.529 19.0006H125.616C127.673 19.0006 129.628 19.6332 129.628 21.9325C129.628 23.8334 128.38 24.8663 125.785 24.8663H122.529V19.0006ZM131.753 26.1334V26.0668C134.045 25.1669 135.158 23.2335 135.158 21.2002C135.158 15.8999 130.335 15 126.29 15H120.236C118.28 15 117 15.7669 117 18.1999V35.7995C117 38.2338 118.28 39 120.236 39H127.067C131.854 39 136 36.9348 136 31.9005C136 28.5996 134.314 26.7992 131.753 26.1334Z" fill="#4C4C4C"/>
<path fill-rule="evenodd" clip-rule="evenodd" d="M109.858 23.8702C111.253 23.8702 112 23.4229 112 22.2202C112 21.0168 111.253 20.5702 109.858 20.5702H108.43V17.509C108.43 15.8583 107.49 15 106.062 15C104.633 15 103.692 15.8583 103.692 17.509V20.5702H102.881C101.55 20.5702 101 21.1197 101 22.2202C101 23.32 101.55 23.8702 102.881 23.8702H103.692V34.5289C103.692 37.4859 105.12 39 108.561 39C110.832 39 112 38.2077 112 36.7648C112 35.6987 111.384 35.0805 110.345 35.0805H109.664C108.82 35.0805 108.43 34.6668 108.43 33.9108V23.8702H109.858Z" fill="#4C4C4C"/>
<path fill-rule="evenodd" clip-rule="evenodd" d="M89.3 23.5299C91.4662 23.5299 93.1329 25.2258 93.4002 27.5438H84.8665C85.4012 25.087 86.8664 23.5299 89.3 23.5299ZM94.9991 32.5618C93.0338 32.5618 93.0338 35.0551 89.3658 35.0551C86.5338 35.0551 84.8665 33.1169 84.8665 30.4509H95.8658C97.4999 30.4509 98 30.0013 98 28.2703C98 24.1182 94.799 20 89.1995 20C83.4338 20 80 23.9449 80 29.8287C80 34.2244 82.5666 39 89.3658 39C92.2995 39 96.9997 37.5803 96.9997 34.5359C96.9997 33.5996 96.1664 32.5618 94.9991 32.5618Z" fill="#4C4C4C"/>
<path fill-rule="evenodd" clip-rule="evenodd" d="M66.0663 37.0896C66.6324 38.6637 67.6998 39 69.3999 39C71.0993 39 72.1655 38.6637 72.7329 37.0896L79.6649 18.0548C79.8996 17.4176 80 16.8813 80 16.446C80 14.6031 78.598 14 77.2312 14C75.9667 14 75.1665 14.7703 74.6664 16.4126L69.5329 32.8329H69.4664L64.5325 16.4126C64.0324 14.7703 63.2329 14 61.7656 14C60.4001 14 59 14.6031 59 16.446C59 16.8813 59.0998 17.4176 59.3326 18.0548L66.0663 37.0896Z" fill="#4C4C4C"/>
</svg>
