<svg width="175" height="50" viewBox="0 0 175 50" fill="none" xmlns="http://www.w3.org/2000/svg">
<mask id="mask0" mask-type="alpha" maskUnits="userSpaceOnUse" x="0" y="0" width="49" height="50">
<path fill-rule="evenodd" clip-rule="evenodd" d="M0 0.330811H48.4095V49.9999H0V0.330811Z" fill="white"/>
</mask>
<g mask="url(#mask0)">
<path fill-rule="evenodd" clip-rule="evenodd" d="M12.9977 7.53634C13.9835 7.53634 14.8954 8.02351 15.4477 8.84595C15.7761 9.33762 15.9492 9.91198 15.9492 10.5049C15.9492 12.146 14.6262 13.4786 12.9977 13.4786C11.3737 13.4786 10.0507 12.146 10.0507 10.5049C10.0507 8.86903 11.3737 7.53634 12.9977 7.53634ZM44.5684 20.6383C44.5588 20.6293 44.5499 20.6203 44.541 20.6107C44.5315 20.6017 44.5225 20.5927 44.5136 20.5831C44.1484 20.2113 43.6603 20.0043 43.1359 20.0043C42.0681 20.0043 41.1969 20.8818 41.1969 21.962C41.1969 22.4953 41.4063 22.996 41.7849 23.3639C42.2138 23.7908 42.602 24.2645 42.9437 24.7748C43.9708 26.3094 44.5136 28.1017 44.5136 29.9581C44.5136 30.9004 44.3717 31.8331 44.0981 32.7293L44.0936 32.7344C44.0847 32.762 44.0752 32.794 44.0663 32.8306L44.0618 32.8395C43.6145 34.228 42.8572 35.4639 41.8174 36.5165C40.0788 38.2671 37.7612 39.2325 35.3023 39.2325C33.9245 39.2325 32.5875 38.9293 31.374 38.3498C30.4296 37.8998 29.554 37.2838 28.7923 36.5165C28.4862 36.2036 28.1992 35.8774 27.9478 35.5421C27.9345 35.5101 27.9115 35.4729 27.8842 35.4453C27.6335 35.1056 27.4095 34.7517 27.2179 34.3883C26.7394 33.5197 26.4155 32.578 26.2417 31.5851C26.2188 31.4517 26.2055 31.3094 26.2055 31.1581C26.2055 30.5742 26.4155 30.0133 26.803 29.5767L29.9511 26.3184C30.681 25.5607 30.8904 24.4434 30.4799 23.4697C30.0739 22.4953 29.1295 21.8652 28.0802 21.8652H20.2287C19.1794 21.8652 18.235 22.4953 17.829 23.4697C17.4185 24.4434 17.6285 25.5607 18.3629 26.3184L21.5065 29.5767C21.8941 30.0133 22.1041 30.5742 22.1041 31.1581C22.1041 31.3094 22.0945 31.4517 22.0672 31.5851C21.8985 32.5594 21.5791 33.4921 21.1139 34.3472C20.6939 35.1376 20.1555 35.8684 19.5128 36.5165C18.7231 37.3113 17.8156 37.9408 16.8344 38.3915C15.6482 38.9427 14.3481 39.2325 13.0022 39.2325C10.5477 39.2325 8.23455 38.2671 6.49664 36.5165C5.45173 35.4639 4.69891 34.228 4.24773 32.8306C4.23818 32.7985 4.22927 32.7665 4.21527 32.7389V32.7344C3.93718 31.8383 3.80036 30.9049 3.80036 29.9581C3.80036 28.1017 4.34318 26.3094 5.36964 24.7748C7.08973 22.2145 9.94127 20.6844 13.0022 20.6844C15.7029 20.6844 18.2395 19.6274 20.1511 17.7017C22.0583 15.7806 23.1076 13.2254 23.1076 10.5049C23.1076 7.7889 22.0583 5.23377 20.1511 3.31326C18.2395 1.38762 15.7029 0.330566 13.0022 0.330566C9.64473 0.330566 6.51 2.00813 4.63082 4.81582C3.49936 6.49787 2.90182 8.46903 2.90182 10.5049C2.90182 13.0325 3.82327 15.4543 5.502 17.3203C5.72091 17.5684 5.84436 17.8857 5.84436 18.2165C5.84436 18.6299 5.65727 19.0113 5.33336 19.269C4.86309 19.6088 4.41191 19.9902 3.98745 20.3947L3.983 20.3998C1.414 22.9177 0 26.2863 0 29.894C0 33.4145 1.35927 36.7325 3.82327 39.2325C5.17364 40.5972 6.76582 41.6312 8.50882 42.2927C9.39336 42.6607 12.236 43.1158 12.6694 43.1293C12.7973 43.1338 12.9245 43.1434 13.0525 43.1434H13.0614C14.1018 43.1389 15.1194 43.0145 16.1045 42.771C16.5423 46.8383 19.9595 49.9998 24.1156 49.9998C28.2768 49.9998 31.6979 46.8286 32.1319 42.7575C32.1453 42.7575 32.1593 42.762 32.1726 42.7665C33.1857 43.0145 34.2345 43.1479 35.3067 43.1479C35.4206 43.1479 35.5352 43.1434 35.6491 43.1389C37.7249 42.978 39.3489 42.5088 39.8192 42.3389C41.6532 41.6633 43.3275 40.5742 44.7185 39.1267C47.1005 36.6543 48.4095 33.396 48.4095 29.9492C48.4095 26.4427 47.0457 23.1338 44.5684 20.6383Z" fill="white"/>
</g>
<path fill-rule="evenodd" clip-rule="evenodd" d="M35.999 14C37.6535 14 39 12.6542 39 10.9997C39 10.3986 38.8221 9.81948 38.4869 9.32255C37.9272 8.49369 36.9974 8 35.999 8C34.3458 8 33 9.34649 33 10.9997C33 12.6542 34.3458 14 35.999 14Z" fill="white"/>
<path fill-rule="evenodd" clip-rule="evenodd" d="M8.99967 32C7.89715 32 7 32.8973 7 33.9993C7 35.1027 7.89715 36 8.99967 36C9.40053 36 9.78756 35.8815 10.1193 35.657C10.6709 35.2851 11 34.6656 11 33.9993C11 32.8973 10.1028 32 8.99967 32Z" fill="white"/>
<path fill-rule="evenodd" clip-rule="evenodd" d="M14 31.0007C14 32.1027 14.8966 33 16.0007 33C16.4003 33 16.7874 32.8828 17.1192 32.6583C17.6715 32.2851 18 31.6656 18 31.0007C18 29.8973 17.1027 29 16.0007 29C14.8966 29 14 29.8973 14 31.0007Z" fill="white"/>
<path fill-rule="evenodd" clip-rule="evenodd" d="M8.99967 25C7.89715 25 7 25.8973 7 27C7 28.1027 7.89715 29 8.99967 29C9.40053 29 9.78756 28.8815 10.1193 28.6583C10.6709 28.2851 11 27.6656 11 27C11 25.8973 10.1028 25 8.99967 25Z" fill="white"/>
<path fill-rule="evenodd" clip-rule="evenodd" d="M31.8814 32.6584C32.2131 32.8822 32.6001 33 33.0003 33C34.1028 33 35 32.1028 35 31.001C35 29.8978 34.1028 29 33.0003 29C31.8978 29 31 29.8978 31 31.001C31 31.6658 31.3304 32.2852 31.8814 32.6584Z" fill="white"/>
<path fill-rule="evenodd" clip-rule="evenodd" d="M38 27C38 27.6649 38.3292 28.2857 38.8815 28.6583C39.212 28.8815 39.5991 29 39.9993 29C41.1027 29 42 28.1027 42 27C42 25.8973 41.1027 25 39.9993 25C38.898 25 38 25.8973 38 27Z" fill="white"/>
<path fill-rule="evenodd" clip-rule="evenodd" d="M39.9997 32C38.8981 32 38 32.8973 38 33.9993C38 34.6656 38.3292 35.2851 38.8816 35.657C39.2122 35.8815 39.5993 36 39.9997 36C41.1032 36 42 35.1027 42 33.9993C42 32.8973 41.1032 32 39.9997 32Z" fill="white"/>
<path fill-rule="evenodd" clip-rule="evenodd" d="M166.121 33.8003C163.232 33.8003 162.082 31.334 162.082 29.1C162.082 26.0991 163.093 23.7998 166.366 23.7998C168.732 23.7998 170.126 25.3667 170.126 28.9004C170.126 32.3676 168.385 33.8003 166.121 33.8003ZM172.702 20C171.205 20 170.404 20.7995 170.404 22.2999V22.9005H170.335C169.396 21.0994 167.445 20 164.973 20C160.69 20 157 22.9664 157 29.2663C157 34.067 159.785 37.4005 165.147 37.4005C167.165 37.4005 169.151 36.3337 170.057 35.0666H170.126V36.067C170.126 39.9 168.874 41.3998 165.774 41.3998C162.918 41.3998 162.501 38.9003 160.377 38.9003C159.263 38.9003 158.288 39.7663 158.288 40.9655C158.288 43.3339 162.082 45 165.948 45C171.241 45 175 42.3003 175 36.4341V22.2999C175 20.7995 174.269 20 172.702 20Z" fill="white"/>
<path fill-rule="evenodd" clip-rule="evenodd" d="M149.393 32.0093C149.393 33.8778 147.688 35.6773 144.902 35.6773C143.161 35.6773 142.084 34.7437 142.084 33.6003C142.084 32.079 143.231 31.421 145.356 31.1089L147.2 30.832C147.792 30.7278 148.836 30.5551 149.393 30.0365V32.0093ZM155 37.0618C155 36.2649 154.478 35.7815 154.478 33.6693V25.1912C154.478 21.5571 151.1 20 146.226 20C141.003 20 138.148 22.5611 138.148 24.5684C138.148 25.6056 139.019 26.506 140.306 26.506C142.325 26.506 142.43 23.7377 146.192 23.7377C147.897 23.7377 149.393 24.3606 149.393 25.8134C149.393 27.2683 148.419 27.5438 147.2 27.6819L144.102 28.0286C140.202 28.4781 137 29.656 137 33.8433C137 37.0272 139.854 39 142.744 39C145.425 39 147.722 38.2377 149.707 36.0571C149.777 37.6142 150.508 39 152.7 39C153.919 39 155 38.2032 155 37.0618Z" fill="white"/>
<path fill-rule="evenodd" clip-rule="evenodd" d="M125.886 34.7998H122.529V28.3329H125.211C127.909 28.3329 130.471 28.7 130.471 31.6006C130.471 34.3681 128.044 34.7998 125.886 34.7998ZM122.529 19.0006H125.616C127.673 19.0006 129.628 19.6332 129.628 21.9325C129.628 23.8334 128.38 24.8663 125.785 24.8663H122.529V19.0006ZM131.753 26.1334V26.0668C134.045 25.1669 135.158 23.2335 135.158 21.2002C135.158 15.8999 130.335 15 126.29 15H120.236C118.28 15 117 15.7669 117 18.1999V35.7995C117 38.2338 118.28 39 120.236 39H127.067C131.854 39 136 36.9348 136 31.9005C136 28.5996 134.314 26.7992 131.753 26.1334Z" fill="white"/>
<path fill-rule="evenodd" clip-rule="evenodd" d="M109.858 23.8702C111.253 23.8702 112 23.4229 112 22.2202C112 21.0168 111.253 20.5702 109.858 20.5702H108.43V17.509C108.43 15.8583 107.49 15 106.062 15C104.633 15 103.692 15.8583 103.692 17.509V20.5702H102.881C101.55 20.5702 101 21.1197 101 22.2202C101 23.32 101.55 23.8702 102.881 23.8702H103.692V34.5289C103.692 37.4859 105.12 39 108.561 39C110.832 39 112 38.2077 112 36.7648C112 35.6987 111.384 35.0805 110.345 35.0805H109.664C108.82 35.0805 108.43 34.6668 108.43 33.9108V23.8702H109.858Z" fill="white"/>
<path fill-rule="evenodd" clip-rule="evenodd" d="M89.3 23.5299C91.4662 23.5299 93.1329 25.2258 93.4002 27.5438H84.8665C85.4012 25.087 86.8664 23.5299 89.3 23.5299ZM94.9991 32.5618C93.0338 32.5618 93.0338 35.0551 89.3658 35.0551C86.5338 35.0551 84.8665 33.1169 84.8665 30.4509H95.8658C97.4999 30.4509 98 30.0013 98 28.2703C98 24.1182 94.799 20 89.1995 20C83.4338 20 80 23.9449 80 29.8287C80 34.2244 82.5666 39 89.3658 39C92.2995 39 96.9997 37.5803 96.9997 34.5359C96.9997 33.5996 96.1664 32.5618 94.9991 32.5618Z" fill="white"/>
<path fill-rule="evenodd" clip-rule="evenodd" d="M66.0663 37.0896C66.6324 38.6637 67.6998 39 69.3999 39C71.0993 39 72.1655 38.6637 72.7329 37.0896L79.6649 18.0548C79.8996 17.4176 80 16.8813 80 16.446C80 14.6031 78.598 14 77.2312 14C75.9667 14 75.1665 14.7703 74.6664 16.4126L69.5329 32.8329H69.4664L64.5325 16.4126C64.0324 14.7703 63.2329 14 61.7656 14C60.4001 14 59 14.6031 59 16.446C59 16.8813 59.0998 17.4176 59.3326 18.0548L66.0663 37.0896Z" fill="white"/>
</svg>
